solid Exported from Blender-2.93.0
facet normal 0.182762 0.034309 -0.982558
outer loop
vertex 13.208786 5.664207 0.110819
vertex 13.943604 4.599536 0.210324
vertex 12.291778 4.510178 -0.100047
endloop
endfacet
facet normal 0.167207 0.234916 -0.957526
outer loop
vertex 13.943604 4.599536 0.210324
vertex 13.642941 3.460215 -0.121696
vertex 12.291778 4.510178 -0.100047
endloop
endfacet
facet normal 0.096890 0.103878 -0.989859
outer loop
vertex 11.841614 6.058701 0.018395
vertex 13.208786 5.664207 0.110819
vertex 12.291778 4.510178 -0.100047
endloop
endfacet
facet normal 0.004758 -0.205210 -0.978707
outer loop
vertex 12.097454 3.350020 -0.098261
vertex 13.100758 2.273944 0.132242
vertex 11.818510 1.969834 0.189773
endloop
endfacet
facet normal 0.000601 -0.001640 -0.999999
outer loop
vertex 12.291778 4.510178 -0.100047
vertex 12.097454 3.350020 -0.098261
vertex 10.894816 4.045701 -0.100124
endloop
endfacet
facet normal 0.138646 -0.229092 -0.963480
outer loop
vertex 12.097454 3.350020 -0.098261
vertex 11.818510 1.969834 0.189773
vertex 10.771801 2.667793 -0.126807
endloop
endfacet
facet normal 0.009026 -0.026980 -0.999595
outer loop
vertex 10.775177 5.349822 -0.136405
vertex 12.291778 4.510178 -0.100047
vertex 10.894816 4.045701 -0.100124
endloop
endfacet
facet normal 0.012122 0.018278 -0.999759
outer loop
vertex 10.894816 4.045701 -0.100124
vertex 12.097454 3.350020 -0.098261
vertex 10.771801 2.667793 -0.126807
endloop
endfacet
facet normal -0.064535 -0.033666 -0.997347
outer loop
vertex 9.472823 4.729106 -0.031180
vertex 10.775177 5.349822 -0.136405
vertex 10.894816 4.045701 -0.100124
endloop
endfacet
facet normal -0.562489 -0.436122 0.702428
outer loop
vertex 9.766724 3.034791 2.618552
vertex 10.396827 3.662040 3.512569
vertex 9.303389 4.076221 2.894123
endloop
endfacet
facet normal 0.085027 0.180254 0.979938
outer loop
vertex 9.303389 4.076221 2.894123
vertex 9.929835 4.947537 2.679493
vertex 8.366585 5.043912 2.797406
endloop
endfacet
facet normal 0.055020 -0.232468 0.971047
outer loop
vertex 8.466265 3.000000 2.683908
vertex 9.766724 3.034791 2.618552
vertex 9.303389 4.076221 2.894123
endloop
endfacet
facet normal -1.000000 0.000000 0.000000
outer loop
vertex 2.000000 3.449197 0.248053
vertex 2.000000 3.298234 1.734245
vertex 2.000000 4.582022 1.307059
endloop
endfacet
facet normal 0.731381 -0.171167 -0.660140
outer loop
vertex 6.734056 3.256725 0.868949
vertex 6.538791 4.714308 0.274677
vertex 7.496900 4.707158 1.338037
endloop
endfacet
facet normal -0.196961 0.974500 -0.107495
outer loop
vertex 8.366585 5.043912 2.797406
vertex 8.893934 5.006660 1.493435
vertex 7.496900 4.707158 1.338037
endloop
endfacet
facet normal -0.200037 -0.952755 -0.228568
outer loop
vertex 2.216020 2.000000 1.278375
vertex 2.284153 2.316370 -0.100000
vertex 3.381830 2.000000 0.258087
endloop
endfacet
facet normal -0.637097 -0.760009 -0.128429
outer loop
vertex 10.800249 2.318826 2.766020
vertex 10.335087 2.938468 1.406660
vertex 11.333979 2.089671 1.474428
endloop
endfacet
facet normal -0.042913 0.011492 -0.999013
outer loop
vertex 9.472823 4.729106 -0.031180
vertex 10.894816 4.045701 -0.100124
vertex 9.518496 3.331665 -0.049217
endloop
endfacet
facet normal -0.260347 -0.215923 -0.941061
outer loop
vertex 2.337143 4.559617 -0.100000
vertex 3.359925 3.326405 -0.100000
vertex 2.000000 3.449197 0.248053
endloop
endfacet
facet normal -0.980164 0.143033 -0.137188
outer loop
vertex 2.204731 6.000000 1.322713
vertex 2.000000 4.582022 1.307059
vertex 2.000000 5.746584 2.521233
endloop
endfacet
facet normal 0.496933 0.622286 0.604829
outer loop
vertex 12.353464 5.558899 3.578546
vertex 13.191695 4.363310 4.119945
vertex 13.664113 5.163603 2.908410
endloop
endfacet
facet normal 0.525199 0.628177 0.574073
outer loop
vertex 11.967026 4.958518 4.589049
vertex 13.191695 4.363310 4.119945
vertex 12.353464 5.558899 3.578546
endloop
endfacet
facet normal 0.939679 -0.340608 -0.031459
outer loop
vertex 13.981386 3.800548 3.013312
vertex 13.528315 2.601303 2.464318
vertex 14.023445 4.044297 1.630554
endloop
endfacet
facet normal -0.426155 0.903103 0.052896
outer loop
vertex 10.288845 5.028519 1.431154
vertex 10.775177 5.349822 -0.136405
vertex 9.472823 4.729106 -0.031180
endloop
endfacet
facet normal -0.967989 0.015826 0.250491
outer loop
vertex 2.000000 5.746584 2.521233
vertex 2.000000 4.224115 2.617423
vertex 2.251653 5.154985 3.531089
endloop
endfacet
facet normal 0.000000 0.000000 -1.000000
outer loop
vertex 3.780000 4.571222 -0.100000
vertex 4.742366 3.419824 -0.100000
vertex 3.359925 3.326405 -0.100000
endloop
endfacet
facet normal 0.107223 -0.006508 0.994214
outer loop
vertex 7.310774 3.321929 2.900000
vertex 8.366585 5.043912 2.797406
vertex 7.164481 4.751285 2.925134
endloop
endfacet
facet normal -0.010281 0.620945 0.783787
outer loop
vertex 4.801173 5.151826 3.534554
vertex 3.463121 4.757210 3.829631
vertex 4.487479 4.069370 4.388001
endloop
endfacet
facet normal 0.558219 -0.025383 -0.829305
outer loop
vertex 7.496900 4.707158 1.338037
vertex 7.715991 3.000000 1.537764
vertex 6.734056 3.256725 0.868949
endloop
endfacet
facet normal -0.023596 0.010176 -0.999670
outer loop
vertex 5.229862 4.550295 -0.100000
vertex 6.184314 3.400836 -0.134229
vertex 4.742366 3.419824 -0.100000
endloop
endfacet
facet normal 0.176989 0.751437 0.635623
outer loop
vertex 4.801173 5.151826 3.534554
vertex 4.564744 6.056126 2.531321
vertex 3.425493 5.882433 3.053885
endloop
endfacet
facet normal -0.550889 0.428407 0.716233
outer loop
vertex 10.883359 4.978737 3.743456
vertex 11.067135 3.785754 4.598375
vertex 11.967026 4.958518 4.589049
endloop
endfacet
facet normal 0.934862 0.345307 0.082443
outer loop
vertex 13.587741 5.256629 1.493427
vertex 14.023445 4.044297 1.630554
vertex 13.943604 4.599536 0.210324
endloop
endfacet
facet normal -0.248058 -0.966289 0.068934
outer loop
vertex 10.800249 2.318826 2.766020
vertex 11.333979 2.089671 1.474428
vertex 12.218015 1.957029 2.796318
endloop
endfacet
facet normal -0.118616 0.972583 -0.200034
outer loop
vertex 4.481455 6.000000 1.167942
vertex 6.075030 5.977796 0.115020
vertex 4.560452 5.745332 -0.117124
endloop
endfacet
facet normal 0.525175 0.844491 0.105003
outer loop
vertex 13.587741 5.256629 1.493427
vertex 13.208786 5.664207 0.110819
vertex 12.541946 5.947371 1.168676
endloop
endfacet
facet normal -0.840487 0.224059 0.493335
outer loop
vertex 10.883359 4.978737 3.743456
vertex 10.396827 3.662040 3.512569
vertex 11.067135 3.785754 4.598375
endloop
endfacet
facet normal 0.803380 -0.247707 0.541500
outer loop
vertex 13.044109 2.853742 3.648361
vertex 13.191695 4.363310 4.119945
vertex 12.474234 3.214858 4.659030
endloop
endfacet
facet normal -0.056455 0.978717 0.197297
outer loop
vertex 2.000000 5.746584 2.521233
vertex 3.351417 6.000000 1.650827
vertex 2.204731 6.000000 1.322713
endloop
endfacet
facet normal -0.987210 -0.158609 -0.016111
outer loop
vertex 2.000000 3.449197 0.248053
vertex 2.216020 2.000000 1.278375
vertex 2.000000 3.298234 1.734245
endloop
endfacet
facet normal 0.814476 -0.552636 0.176697
outer loop
vertex 6.315861 3.000000 1.993663
vertex 5.755004 2.000000 1.451322
vertex 6.734056 3.256725 0.868949
endloop
endfacet
facet normal 0.782875 -0.389721 -0.485000
outer loop
vertex 6.734056 3.256725 0.868949
vertex 5.707157 2.000000 0.221195
vertex 6.184314 3.400836 -0.134229
endloop
endfacet
facet normal 0.000000 0.000000 -1.000000
outer loop
vertex 3.780000 4.571222 -0.100000
vertex 5.229862 4.550295 -0.100000
vertex 4.742366 3.419824 -0.100000
endloop
endfacet
facet normal -0.971999 -0.213962 -0.097156
outer loop
vertex 2.000000 3.449197 0.248053
vertex 2.284153 2.316370 -0.100000
vertex 2.216020 2.000000 1.278375
endloop
endfacet
facet normal 0.867485 -0.444357 -0.223647
outer loop
vertex 13.100758 2.273944 0.132242
vertex 13.642941 3.460215 -0.121696
vertex 13.692959 2.888407 1.208421
endloop
endfacet
facet normal -0.584170 0.453600 0.673047
outer loop
vertex 11.967026 4.958518 4.589049
vertex 11.067135 3.785754 4.598375
vertex 12.206012 4.117579 5.363227
endloop
endfacet
facet normal 0.000000 -1.000000 0.000000
outer loop
vertex 4.521013 2.000000 1.229585
vertex 5.707157 2.000000 0.221195
vertex 5.755004 2.000000 1.451322
endloop
endfacet
facet normal -0.469368 -0.532468 0.704395
outer loop
vertex 9.766724 3.034791 2.618552
vertex 10.800249 2.318826 2.766020
vertex 10.396827 3.662040 3.512569
endloop
endfacet
facet normal -0.278821 -0.608261 0.743153
outer loop
vertex 11.516507 2.665924 3.850409
vertex 12.474234 3.214858 4.659030
vertex 11.067135 3.785754 4.598375
endloop
endfacet
facet normal 0.000000 -1.000000 0.000000
outer loop
vertex 7.715991 3.000000 1.537764
vertex 9.012363 3.000000 1.385794
vertex 8.466265 3.000000 2.683908
endloop
endfacet
facet normal 0.452280 -0.889995 0.057901
outer loop
vertex 12.218015 1.957029 2.796318
vertex 12.632699 2.079638 1.441723
vertex 13.528315 2.601303 2.464318
endloop
endfacet
facet normal 0.183762 0.001523 0.982970
outer loop
vertex 6.008387 3.334968 3.143456
vertex 7.310774 3.321929 2.900000
vertex 7.164481 4.751285 2.925134
endloop
endfacet
facet normal 0.954910 0.215825 0.203880
outer loop
vertex 6.021973 4.766588 3.159400
vertex 6.278593 5.000000 1.710385
vertex 5.794405 6.052056 2.864471
endloop
endfacet
facet normal -0.631662 -0.512840 0.581376
outer loop
vertex 10.396827 3.662040 3.512569
vertex 10.800249 2.318826 2.766020
vertex 11.516507 2.665924 3.850409
endloop
endfacet
facet normal 0.781622 -0.623011 -0.030402
outer loop
vertex 5.755004 2.000000 1.451322
vertex 5.707157 2.000000 0.221195
vertex 6.734056 3.256725 0.868949
endloop
endfacet
facet normal 0.712672 -0.271713 0.646738
outer loop
vertex 13.981386 3.800548 3.013312
vertex 13.191695 4.363310 4.119945
vertex 13.044109 2.853742 3.648361
endloop
endfacet
facet normal -0.243611 0.966739 -0.077903
outer loop
vertex 8.366585 5.043912 2.797406
vertex 7.496900 4.707158 1.338037
vertex 7.164481 4.751285 2.925134
endloop
endfacet
facet normal -0.081574 -0.964667 -0.250524
outer loop
vertex 6.315861 3.000000 1.993663
vertex 6.734056 3.256725 0.868949
vertex 7.715991 3.000000 1.537764
endloop
endfacet
facet normal -0.904584 -0.214220 -0.368561
outer loop
vertex 9.518496 3.331665 -0.049217
vertex 9.012363 3.000000 1.385794
vertex 8.838385 4.035097 1.211167
endloop
endfacet
facet normal -0.948790 0.215735 -0.230773
outer loop
vertex 2.337143 4.559617 -0.100000
vertex 2.000000 3.449197 0.248053
vertex 2.000000 4.582022 1.307059
endloop
endfacet
facet normal 0.868352 -0.495690 0.015984
outer loop
vertex 5.733268 2.009663 2.931795
vertex 5.755004 2.000000 1.451322
vertex 6.315861 3.000000 1.993663
endloop
endfacet
facet normal -0.912519 0.161371 -0.375857
outer loop
vertex 9.472823 4.729106 -0.031180
vertex 8.838385 4.035097 1.211167
vertex 8.893934 5.006660 1.493435
endloop
endfacet
facet normal -0.948325 -0.225085 -0.223642
outer loop
vertex 2.000000 5.688489 0.193457
vertex 2.337143 4.559617 -0.100000
vertex 2.000000 4.582022 1.307059
endloop
endfacet
facet normal 0.588193 -0.801721 -0.106167
outer loop
vertex 12.632699 2.079638 1.441723
vertex 13.692959 2.888407 1.208421
vertex 13.528315 2.601303 2.464318
endloop
endfacet
facet normal -0.979407 -0.199490 -0.031083
outer loop
vertex 2.000000 3.298234 1.734245
vertex 2.247484 1.939873 2.654113
vertex 2.000000 3.041342 3.382977
endloop
endfacet
facet normal 0.882076 0.467729 -0.056310
outer loop
vertex 5.794405 6.052056 2.864471
vertex 6.278593 5.000000 1.710385
vertex 5.716466 6.025713 1.424765
endloop
endfacet
facet normal 0.555786 0.831029 -0.022208
outer loop
vertex 12.541946 5.947371 1.168676
vertex 12.534646 5.985229 2.402557
vertex 13.587741 5.256629 1.493427
endloop
endfacet
facet normal 0.526047 0.652093 0.545939
outer loop
vertex 11.967026 4.958518 4.589049
vertex 12.206012 4.117579 5.363227
vertex 13.191695 4.363310 4.119945
endloop
endfacet
facet normal -0.012489 0.999123 -0.039973
outer loop
vertex 5.716466 6.025713 1.424765
vertex 6.075030 5.977796 0.115020
vertex 4.481455 6.000000 1.167942
endloop
endfacet
facet normal -0.231657 -0.871612 0.432005
outer loop
vertex 10.800249 2.318826 2.766020
vertex 12.218015 1.957029 2.796318
vertex 11.516507 2.665924 3.850409
endloop
endfacet
facet normal -0.885111 -0.022930 -0.464815
outer loop
vertex 9.472823 4.729106 -0.031180
vertex 9.518496 3.331665 -0.049217
vertex 8.838385 4.035097 1.211167
endloop
endfacet
facet normal 0.770086 -0.482161 0.417718
outer loop
vertex 13.044109 2.853742 3.648361
vertex 13.528315 2.601303 2.464318
vertex 13.981386 3.800548 3.013312
endloop
endfacet
facet normal -0.242419 -0.256593 -0.935624
outer loop
vertex 3.359925 3.326405 -0.100000
vertex 4.518795 2.231546 -0.100000
vertex 3.381830 2.000000 0.258087
endloop
endfacet
facet normal 0.171149 -0.046303 0.984156
outer loop
vertex 7.310774 3.321929 2.900000
vertex 8.466265 3.000000 2.683908
vertex 8.366585 5.043912 2.797406
endloop
endfacet
facet normal -0.313591 0.433560 0.844800
outer loop
vertex 10.396827 3.662040 3.512569
vertex 9.929835 4.947537 2.679493
vertex 9.303389 4.076221 2.894123
endloop
endfacet
facet normal 0.483689 -0.794493 0.367188
outer loop
vertex 12.218015 1.957029 2.796318
vertex 13.528315 2.601303 2.464318
vertex 13.044109 2.853742 3.648361
endloop
endfacet
facet normal 0.176239 -0.758498 0.627392
outer loop
vertex 11.516507 2.665924 3.850409
vertex 12.218015 1.957029 2.796318
vertex 13.044109 2.853742 3.648361
endloop
endfacet
facet normal 0.281284 0.956393 -0.078690
outer loop
vertex 12.541946 5.947371 1.168676
vertex 13.208786 5.664207 0.110819
vertex 11.841614 6.058701 0.018395
endloop
endfacet
facet normal 0.617653 -0.779393 0.105124
outer loop
vertex 12.632699 2.079638 1.441723
vertex 13.100758 2.273944 0.132242
vertex 13.692959 2.888407 1.208421
endloop
endfacet
facet normal -0.276345 0.797621 0.536130
outer loop
vertex 3.425493 5.882433 3.053885
vertex 2.000000 5.746584 2.521233
vertex 2.251653 5.154985 3.531089
endloop
endfacet
facet normal -0.556384 0.679167 0.478715
outer loop
vertex 11.091070 5.860341 2.734108
vertex 9.929835 4.947537 2.679493
vertex 10.883359 4.978737 3.743456
endloop
endfacet
facet normal -0.004607 0.999860 0.016101
outer loop
vertex 3.351417 6.000000 1.650827
vertex 3.359592 6.024146 0.153714
vertex 2.204731 6.000000 1.322713
endloop
endfacet
facet normal -0.023771 0.981923 -0.187783
outer loop
vertex 10.288845 5.028519 1.431154
vertex 9.472823 4.729106 -0.031180
vertex 8.893934 5.006660 1.493435
endloop
endfacet
facet normal -0.981647 0.103623 0.160096
outer loop
vertex 2.000000 4.224115 2.617423
vertex 2.000000 3.041342 3.382977
vertex 2.273674 4.088959 4.382962
endloop
endfacet
facet normal 0.184344 0.969821 -0.159575
outer loop
vertex 7.496900 4.707158 1.338037
vertex 6.538791 4.714308 0.274677
vertex 6.278593 5.000000 1.710385
endloop
endfacet
facet normal -0.985450 -0.169290 0.015139
outer loop
vertex 2.000000 3.298234 1.734245
vertex 2.216020 2.000000 1.278375
vertex 2.247484 1.939873 2.654113
endloop
endfacet
facet normal -1.000000 0.000000 0.000000
outer loop
vertex 2.000000 4.582022 1.307059
vertex 2.000000 4.224115 2.617423
vertex 2.000000 5.746584 2.521233
endloop
endfacet
facet normal -0.655393 0.753707 -0.048847
outer loop
vertex 10.288845 5.028519 1.431154
vertex 11.287727 5.894837 1.396130
vertex 10.775177 5.349822 -0.136405
endloop
endfacet
facet normal 0.966806 -0.214823 -0.138336
outer loop
vertex 14.023445 4.044297 1.630554
vertex 13.642941 3.460215 -0.121696
vertex 13.943604 4.599536 0.210324
endloop
endfacet
facet normal -0.015234 0.001012 -0.999883
outer loop
vertex 12.291778 4.510178 -0.100047
vertex 13.642941 3.460215 -0.121696
vertex 12.097454 3.350020 -0.098261
endloop
endfacet
facet normal -0.609556 0.782904 -0.124515
outer loop
vertex 9.929835 4.947537 2.679493
vertex 11.091070 5.860341 2.734108
vertex 10.288845 5.028519 1.431154
endloop
endfacet
facet normal 0.061252 0.998115 -0.003742
outer loop
vertex 9.929835 4.947537 2.679493
vertex 8.893934 5.006660 1.493435
vertex 8.366585 5.043912 2.797406
endloop
endfacet
facet normal -0.128485 -0.666980 0.733914
outer loop
vertex 2.000000 3.041342 3.382977
vertex 3.406742 3.502050 4.047944
vertex 2.273674 4.088959 4.382962
endloop
endfacet
facet normal -0.660734 -0.581870 0.474192
outer loop
vertex 10.396827 3.662040 3.512569
vertex 11.516507 2.665924 3.850409
vertex 11.067135 3.785754 4.598375
endloop
endfacet
facet normal 0.014022 0.567861 0.823005
outer loop
vertex 3.463121 4.757210 3.829631
vertex 4.801173 5.151826 3.534554
vertex 3.425493 5.882433 3.053885
endloop
endfacet
facet normal -0.540919 -0.819671 -0.188536
outer loop
vertex 9.766724 3.034791 2.618552
vertex 10.335087 2.938468 1.406660
vertex 10.800249 2.318826 2.766020
endloop
endfacet
facet normal -1.000000 0.000000 0.000000
outer loop
vertex 2.000000 3.298234 1.734245
vertex 2.000000 3.041342 3.382977
vertex 2.000000 4.224115 2.617423
endloop
endfacet
facet normal 0.941711 0.335188 -0.028791
outer loop
vertex 13.664113 5.163603 2.908410
vertex 14.023445 4.044297 1.630554
vertex 13.587741 5.256629 1.493427
endloop
endfacet
facet normal -0.980330 0.140006 0.139110
outer loop
vertex 2.000000 5.688489 0.193457
vertex 2.000000 4.582022 1.307059
vertex 2.204731 6.000000 1.322713
endloop
endfacet
facet normal 0.930149 0.353815 0.098169
outer loop
vertex 6.278593 5.000000 1.710385
vertex 6.538791 4.714308 0.274677
vertex 6.075030 5.977796 0.115020
endloop
endfacet
facet normal 0.831899 0.514091 0.208938
outer loop
vertex 5.716466 6.025713 1.424765
vertex 6.278593 5.000000 1.710385
vertex 6.075030 5.977796 0.115020
endloop
endfacet
facet normal 0.581639 0.813148 0.022065
outer loop
vertex 13.664113 5.163603 2.908410
vertex 13.587741 5.256629 1.493427
vertex 12.534646 5.985229 2.402557
endloop
endfacet
facet normal -0.000208 -0.014444 -0.999896
outer loop
vertex 4.560452 5.745332 -0.117124
vertex 5.229862 4.550295 -0.100000
vertex 3.780000 4.571222 -0.100000
endloop
endfacet
facet normal -0.049245 0.023732 -0.998505
outer loop
vertex 10.894816 4.045701 -0.100124
vertex 10.771801 2.667793 -0.126807
vertex 9.518496 3.331665 -0.049217
endloop
endfacet
facet normal -0.229564 0.755960 0.613045
outer loop
vertex 12.353464 5.558899 3.578546
vertex 11.091070 5.860341 2.734108
vertex 10.883359 4.978737 3.743456
endloop
endfacet
facet normal -0.537943 0.834826 -0.116976
outer loop
vertex 10.775177 5.349822 -0.136405
vertex 11.287727 5.894837 1.396130
vertex 11.841614 6.058701 0.018395
endloop
endfacet
facet normal 0.000100 -0.209366 -0.977837
outer loop
vertex 12.097454 3.350020 -0.098261
vertex 13.642941 3.460215 -0.121696
vertex 13.100758 2.273944 0.132242
endloop
endfacet
facet normal -0.187625 -0.575743 0.795812
outer loop
vertex 3.440631 2.321619 3.201931
vertex 3.406742 3.502050 4.047944
vertex 2.000000 3.041342 3.382977
endloop
endfacet
facet normal -1.000000 0.000000 0.000000
outer loop
vertex 2.000000 4.582022 1.307059
vertex 2.000000 3.298234 1.734245
vertex 2.000000 4.224115 2.617423
endloop
endfacet
facet normal 0.973969 -0.011764 0.226374
outer loop
vertex 5.720109 4.007370 4.418709
vertex 6.008387 3.334968 3.143456
vertex 6.021973 4.766588 3.159400
endloop
endfacet
facet normal 0.785230 -0.218613 0.579328
outer loop
vertex 12.206012 4.117579 5.363227
vertex 12.474234 3.214858 4.659030
vertex 13.191695 4.363310 4.119945
endloop
endfacet
facet normal -0.981150 0.107865 0.160344
outer loop
vertex 2.000000 4.224115 2.617423
vertex 2.273674 4.088959 4.382962
vertex 2.251653 5.154985 3.531089
endloop
endfacet
facet normal 0.052060 -0.998617 0.007283
outer loop
vertex 4.545480 1.945335 2.601765
vertex 5.755004 2.000000 1.451322
vertex 5.733268 2.009663 2.931795
endloop
endfacet
facet normal 0.954075 -0.293922 0.057884
outer loop
vertex 13.528315 2.601303 2.464318
vertex 13.692959 2.888407 1.208421
vertex 14.023445 4.044297 1.630554
endloop
endfacet
facet normal 0.144967 -0.974725 -0.169989
outer loop
vertex 3.381830 2.000000 0.258087
vertex 4.518795 2.231546 -0.100000
vertex 4.521013 2.000000 1.229585
endloop
endfacet
facet normal -0.144135 -0.974926 -0.169542
outer loop
vertex 4.521013 2.000000 1.229585
vertex 4.518795 2.231546 -0.100000
vertex 5.707157 2.000000 0.221195
endloop
endfacet
facet normal -0.026178 -0.237459 -0.971045
outer loop
vertex 4.742366 3.419824 -0.100000
vertex 6.184314 3.400836 -0.134229
vertex 5.707157 2.000000 0.221195
endloop
endfacet
facet normal 0.241346 0.228487 -0.943157
outer loop
vertex 5.229862 4.550295 -0.100000
vertex 6.538791 4.714308 0.274677
vertex 6.184314 3.400836 -0.134229
endloop
endfacet
facet normal -0.466843 -0.884039 0.023092
outer loop
vertex 9.518496 3.331665 -0.049217
vertex 10.771801 2.667793 -0.126807
vertex 10.335087 2.938468 1.406660
endloop
endfacet
facet normal -0.525502 -0.842340 -0.119626
outer loop
vertex 11.333979 2.089671 1.474428
vertex 10.771801 2.667793 -0.126807
vertex 11.818510 1.969834 0.189773
endloop
endfacet
facet normal 0.227644 -0.971716 -0.062819
outer loop
vertex 11.818510 1.969834 0.189773
vertex 13.100758 2.273944 0.132242
vertex 12.632699 2.079638 1.441723
endloop
endfacet
facet normal -0.239934 0.946113 -0.217491
outer loop
vertex 3.359592 6.024146 0.153714
vertex 2.000000 5.688489 0.193457
vertex 2.204731 6.000000 1.322713
endloop
endfacet
facet normal 0.200684 -0.012814 0.979572
outer loop
vertex 6.008387 3.334968 3.143456
vertex 7.164481 4.751285 2.925134
vertex 6.021973 4.766588 3.159400
endloop
endfacet
facet normal -0.021777 0.993755 0.109438
outer loop
vertex 12.541946 5.947371 1.168676
vertex 11.841614 6.058701 0.018395
vertex 11.287727 5.894837 1.396130
endloop
endfacet
facet normal 0.006907 0.999846 0.016163
outer loop
vertex 4.481455 6.000000 1.167942
vertex 3.359592 6.024146 0.153714
vertex 3.351417 6.000000 1.650827
endloop
endfacet
facet normal 0.240395 0.970394 0.023370
outer loop
vertex 7.164481 4.751285 2.925134
vertex 7.496900 4.707158 1.338037
vertex 6.278593 5.000000 1.710385
endloop
endfacet
facet normal -0.200924 -0.952822 0.227506
outer loop
vertex 3.440631 2.321619 3.201931
vertex 3.369117 2.000000 1.791795
vertex 4.545480 1.945335 2.601765
endloop
endfacet
facet normal -0.084405 0.227009 -0.970228
outer loop
vertex 2.000000 5.688489 0.193457
vertex 3.359592 6.024146 0.153714
vertex 2.337143 4.559617 -0.100000
endloop
endfacet
facet normal -0.654797 0.751886 -0.076857
outer loop
vertex 10.288845 5.028519 1.431154
vertex 11.091070 5.860341 2.734108
vertex 11.287727 5.894837 1.396130
endloop
endfacet
facet normal -0.005405 -0.995849 0.090857
outer loop
vertex 11.333979 2.089671 1.474428
vertex 11.818510 1.969834 0.189773
vertex 12.632699 2.079638 1.441723
endloop
endfacet
facet normal 0.000000 -1.000000 0.000000
outer loop
vertex 2.216020 2.000000 1.278375
vertex 3.381830 2.000000 0.258087
vertex 3.369117 2.000000 1.791795
endloop
endfacet
facet normal 0.000000 -1.000000 0.000000
outer loop
vertex 3.369117 2.000000 1.791795
vertex 3.381830 2.000000 0.258087
vertex 4.521013 2.000000 1.229585
endloop
endfacet
facet normal 0.019637 -0.998834 -0.044103
outer loop
vertex 2.247484 1.939873 2.654113
vertex 2.216020 2.000000 1.278375
vertex 3.369117 2.000000 1.791795
endloop
endfacet
facet normal -0.182339 0.708575 0.681670
outer loop
vertex 4.801173 5.151826 3.534554
vertex 5.794405 6.052056 2.864471
vertex 4.564744 6.056126 2.531321
endloop
endfacet
facet normal 0.047442 0.984808 0.167038
outer loop
vertex 7.164481 4.751285 2.925134
vertex 6.278593 5.000000 1.710385
vertex 6.021973 4.766588 3.159400
endloop
endfacet
facet normal 0.824141 0.563213 -0.059857
outer loop
vertex 13.943604 4.599536 0.210324
vertex 13.208786 5.664207 0.110819
vertex 13.587741 5.256629 1.493427
endloop
endfacet
facet normal 0.917788 -0.240930 0.315622
outer loop
vertex 6.008387 3.334968 3.143456
vertex 5.733268 2.009663 2.931795
vertex 6.315861 3.000000 1.993663
endloop
endfacet
facet normal -0.220979 0.235362 -0.946453
outer loop
vertex 2.000000 3.449197 0.248053
vertex 3.359925 3.326405 -0.100000
vertex 2.284153 2.316370 -0.100000
endloop
endfacet
facet normal -0.047425 0.998396 -0.030913
outer loop
vertex 12.534646 5.985229 2.402557
vertex 12.541946 5.947371 1.168676
vertex 11.287727 5.894837 1.396130
endloop
endfacet
facet normal -0.012406 0.999108 -0.040372
outer loop
vertex 4.564744 6.056126 2.531321
vertex 5.716466 6.025713 1.424765
vertex 4.481455 6.000000 1.167942
endloop
endfacet
facet normal 0.047570 0.276169 -0.959931
outer loop
vertex 8.893934 5.006660 1.493435
vertex 8.838385 4.035097 1.211167
vertex 7.496900 4.707158 1.338037
endloop
endfacet
facet normal -0.017127 0.999050 -0.040081
outer loop
vertex 4.564744 6.056126 2.531321
vertex 4.481455 6.000000 1.167942
vertex 3.351417 6.000000 1.650827
endloop
endfacet
facet normal -0.737700 0.157467 0.656509
outer loop
vertex 10.396827 3.662040 3.512569
vertex 10.883359 4.978737 3.743456
vertex 9.929835 4.947537 2.679493
endloop
endfacet
facet normal -0.047291 -0.997249 0.057084
outer loop
vertex 9.012363 3.000000 1.385794
vertex 10.335087 2.938468 1.406660
vertex 9.766724 3.034791 2.618552
endloop
endfacet
facet normal -0.019258 -0.999036 -0.039457
outer loop
vertex 3.369117 2.000000 1.791795
vertex 4.521013 2.000000 1.229585
vertex 4.545480 1.945335 2.601765
endloop
endfacet
facet normal 0.007176 -0.999177 -0.039934
outer loop
vertex 4.545480 1.945335 2.601765
vertex 4.521013 2.000000 1.229585
vertex 5.755004 2.000000 1.451322
endloop
endfacet
facet normal -0.184663 -0.570870 0.800005
outer loop
vertex 3.440631 2.321619 3.201931
vertex 2.000000 3.041342 3.382977
vertex 2.247484 1.939873 2.654113
endloop
endfacet
facet normal -0.012914 0.998052 0.061030
outer loop
vertex 9.929835 4.947537 2.679493
vertex 10.288845 5.028519 1.431154
vertex 8.893934 5.006660 1.493435
endloop
endfacet
facet normal 0.843723 0.233583 0.483292
outer loop
vertex 13.191695 4.363310 4.119945
vertex 13.981386 3.800548 3.013312
vertex 13.664113 5.163603 2.908410
endloop
endfacet
facet normal -0.010038 -0.995598 -0.093188
outer loop
vertex 11.333979 2.089671 1.474428
vertex 12.632699 2.079638 1.441723
vertex 12.218015 1.957029 2.796318
endloop
endfacet
facet normal 0.082149 -0.964158 0.252290
outer loop
vertex 6.315861 3.000000 1.993663
vertex 7.715991 3.000000 1.537764
vertex 7.310774 3.321929 2.900000
endloop
endfacet
facet normal 0.008388 0.999789 -0.018748
outer loop
vertex 5.794405 6.052056 2.864471
vertex 5.716466 6.025713 1.424765
vertex 4.564744 6.056126 2.531321
endloop
endfacet
facet normal -0.083111 0.996449 0.013476
outer loop
vertex 12.534646 5.985229 2.402557
vertex 11.287727 5.894837 1.396130
vertex 11.091070 5.860341 2.734108
endloop
endfacet
facet normal 0.183716 0.966320 -0.180207
outer loop
vertex 4.481455 6.000000 1.167942
vertex 4.560452 5.745332 -0.117124
vertex 3.359592 6.024146 0.153714
endloop
endfacet
facet normal 0.027319 -0.999561 0.011492
outer loop
vertex 8.466265 3.000000 2.683908
vertex 9.012363 3.000000 1.385794
vertex 9.766724 3.034791 2.618552
endloop
endfacet
facet normal 0.078410 0.098671 -0.992026
outer loop
vertex 10.775177 5.349822 -0.136405
vertex 11.841614 6.058701 0.018395
vertex 12.291778 4.510178 -0.100047
endloop
endfacet
facet normal 0.436107 -0.751601 0.494881
outer loop
vertex 5.720109 4.007370 4.418709
vertex 4.790504 2.923235 3.591379
vertex 6.008387 3.334968 3.143456
endloop
endfacet
facet normal -0.237969 -0.958699 0.155776
outer loop
vertex 7.310774 3.321929 2.900000
vertex 7.715991 3.000000 1.537764
vertex 8.466265 3.000000 2.683908
endloop
endfacet
facet normal -0.110210 0.989936 0.088769
outer loop
vertex 4.564744 6.056126 2.531321
vertex 3.351417 6.000000 1.650827
vertex 3.425493 5.882433 3.053885
endloop
endfacet
facet normal -0.127580 0.987782 0.089505
outer loop
vertex 3.425493 5.882433 3.053885
vertex 3.351417 6.000000 1.650827
vertex 2.000000 5.746584 2.521233
endloop
endfacet
facet normal -0.001380 0.171632 -0.985160
outer loop
vertex 3.359592 6.024146 0.153714
vertex 3.780000 4.571222 -0.100000
vertex 2.337143 4.559617 -0.100000
endloop
endfacet
facet normal 0.210527 -0.955373 0.207221
outer loop
vertex 2.247484 1.939873 2.654113
vertex 3.369117 2.000000 1.791795
vertex 3.440631 2.321619 3.201931
endloop
endfacet
facet normal 0.044720 -0.955852 0.290426
outer loop
vertex 6.008387 3.334968 3.143456
vertex 6.315861 3.000000 1.993663
vertex 7.310774 3.321929 2.900000
endloop
endfacet
facet normal 0.868914 -0.082569 -0.488027
outer loop
vertex 6.734056 3.256725 0.868949
vertex 6.184314 3.400836 -0.134229
vertex 6.538791 4.714308 0.274677
endloop
endfacet
facet normal -0.290589 -0.640717 0.710662
outer loop
vertex 12.206012 4.117579 5.363227
vertex 11.067135 3.785754 4.598375
vertex 12.474234 3.214858 4.659030
endloop
endfacet
facet normal -0.003167 0.940280 0.340389
outer loop
vertex 12.353464 5.558899 3.578546
vertex 12.534646 5.985229 2.402557
vertex 11.091070 5.860341 2.734108
endloop
endfacet
facet normal -0.161355 -0.681718 0.713600
outer loop
vertex 4.545480 1.945335 2.601765
vertex 5.733268 2.009663 2.931795
vertex 4.790504 2.923235 3.591379
endloop
endfacet
facet normal 0.124697 -0.721016 0.681606
outer loop
vertex 4.790504 2.923235 3.591379
vertex 3.440631 2.321619 3.201931
vertex 4.545480 1.945335 2.601765
endloop
endfacet
facet normal 0.000000 0.000000 -1.000000
outer loop
vertex 2.337143 4.559617 -0.100000
vertex 3.780000 4.571222 -0.100000
vertex 3.359925 3.326405 -0.100000
endloop
endfacet
facet normal 0.359407 0.268664 0.893670
outer loop
vertex 5.794405 6.052056 2.864471
vertex 4.801173 5.151826 3.534554
vertex 6.021973 4.766588 3.159400
endloop
endfacet
facet normal -0.016707 0.567141 0.823451
outer loop
vertex 2.251653 5.154985 3.531089
vertex 3.463121 4.757210 3.829631
vertex 3.425493 5.882433 3.053885
endloop
endfacet
facet normal 0.402485 -0.225256 0.887280
outer loop
vertex 4.790504 2.923235 3.591379
vertex 5.733268 2.009663 2.931795
vertex 6.008387 3.334968 3.143456
endloop
endfacet
facet normal 0.164748 -0.895732 0.412943
outer loop
vertex 13.044109 2.853742 3.648361
vertex 12.474234 3.214858 4.659030
vertex 11.516507 2.665924 3.850409
endloop
endfacet
facet normal 0.024813 -0.581885 0.812892
outer loop
vertex 4.790504 2.923235 3.591379
vertex 3.406742 3.502050 4.047944
vertex 3.440631 2.321619 3.201931
endloop
endfacet
facet normal -0.041364 -0.970182 -0.238821
outer loop
vertex 9.012363 3.000000 1.385794
vertex 9.518496 3.331665 -0.049217
vertex 10.335087 2.938468 1.406660
endloop
endfacet
facet normal 0.970347 0.231274 0.070283
outer loop
vertex 13.664113 5.163603 2.908410
vertex 13.981386 3.800548 3.013312
vertex 14.023445 4.044297 1.630554
endloop
endfacet
facet normal 0.399791 0.739455 0.541639
outer loop
vertex 5.720109 4.007370 4.418709
vertex 6.021973 4.766588 3.159400
vertex 4.801173 5.151826 3.534554
endloop
endfacet
facet normal 0.012543 0.624381 0.781019
outer loop
vertex 2.273674 4.088959 4.382962
vertex 3.463121 4.757210 3.829631
vertex 2.251653 5.154985 3.531089
endloop
endfacet
facet normal 0.036375 -0.563852 0.825075
outer loop
vertex 4.790504 2.923235 3.591379
vertex 4.487479 4.069370 4.388001
vertex 3.406742 3.502050 4.047944
endloop
endfacet
facet normal -0.296941 0.866495 0.401263
outer loop
vertex 12.353464 5.558899 3.578546
vertex 10.883359 4.978737 3.743456
vertex 11.967026 4.958518 4.589049
endloop
endfacet
facet normal 0.964670 -0.226938 -0.133834
outer loop
vertex 13.642941 3.460215 -0.121696
vertex 14.023445 4.044297 1.630554
vertex 13.692959 2.888407 1.208421
endloop
endfacet
facet normal 0.011435 0.617056 0.786836
outer loop
vertex 4.801173 5.151826 3.534554
vertex 4.487479 4.069370 4.388001
vertex 5.720109 4.007370 4.418709
endloop
endfacet
facet normal -0.049392 -0.578807 0.813967
outer loop
vertex 4.790504 2.923235 3.591379
vertex 5.720109 4.007370 4.418709
vertex 4.487479 4.069370 4.388001
endloop
endfacet
facet normal 0.349014 0.145345 0.925777
outer loop
vertex 2.273674 4.088959 4.382962
vertex 3.406742 3.502050 4.047944
vertex 3.463121 4.757210 3.829631
endloop
endfacet
facet normal 0.435021 0.822959 0.365369
outer loop
vertex 12.534646 5.985229 2.402557
vertex 12.353464 5.558899 3.578546
vertex 13.664113 5.163603 2.908410
endloop
endfacet
facet normal -0.377971 0.175100 0.909108
outer loop
vertex 3.406742 3.502050 4.047944
vertex 4.487479 4.069370 4.388001
vertex 3.463121 4.757210 3.829631
endloop
endfacet
facet normal -0.644823 -0.762759 -0.049002
outer loop
vertex 10.335087 2.938468 1.406660
vertex 10.771801 2.667793 -0.126807
vertex 11.333979 2.089671 1.474428
endloop
endfacet
facet normal 0.234497 -0.249759 -0.939485
outer loop
vertex 3.359925 3.326405 -0.100000
vertex 3.381830 2.000000 0.258087
vertex 2.284153 2.316370 -0.100000
endloop
endfacet
facet normal -0.193254 0.114247 -0.974474
outer loop
vertex 3.359592 6.024146 0.153714
vertex 4.560452 5.745332 -0.117124
vertex 3.780000 4.571222 -0.100000
endloop
endfacet
facet normal 0.000000 0.000000 -1.000000
outer loop
vertex 3.359925 3.326405 -0.100000
vertex 4.742366 3.419824 -0.100000
vertex 4.518795 2.231546 -0.100000
endloop
endfacet
facet normal 0.252008 -0.047414 -0.966563
outer loop
vertex 4.742366 3.419824 -0.100000
vertex 5.707157 2.000000 0.221195
vertex 4.518795 2.231546 -0.100000
endloop
endfacet
facet normal 0.141418 0.065062 -0.987809
outer loop
vertex 4.560452 5.745332 -0.117124
vertex 6.075030 5.977796 0.115020
vertex 5.229862 4.550295 -0.100000
endloop
endfacet
facet normal 0.277406 -0.019556 -0.960554
outer loop
vertex 6.075030 5.977796 0.115020
vertex 6.538791 4.714308 0.274677
vertex 5.229862 4.550295 -0.100000
endloop
endfacet
facet normal -0.160084 -0.134945 -0.977836
outer loop
vertex 7.496900 4.707158 1.338037
vertex 8.838385 4.035097 1.211167
vertex 7.715991 3.000000 1.537764
endloop
endfacet
facet normal -0.114443 -0.183937 -0.976253
outer loop
vertex 8.838385 4.035097 1.211167
vertex 9.012363 3.000000 1.385794
vertex 7.715991 3.000000 1.537764
endloop
endfacet
facet normal -0.166424 -0.062761 0.984055
outer loop
vertex 8.466265 3.000000 2.683908
vertex 9.303389 4.076221 2.894123
vertex 8.366585 5.043912 2.797406
endloop
endfacet
endsolid Exported from Blender-2.93.0
