solid Exported from Blender-2.93.0
facet normal -0.562489 -0.436122 0.702427
outer loop
vertex 9.766724 3.034791 2.518552
vertex 10.396827 3.662040 3.412570
vertex 9.303389 4.076221 2.794123
endloop
endfacet
facet normal 0.085028 0.180254 0.979938
outer loop
vertex 9.303389 4.076221 2.794123
vertex 9.929835 4.947537 2.579493
vertex 8.366585 5.043912 2.697406
endloop
endfacet
facet normal 0.055021 -0.232468 0.971047
outer loop
vertex 8.466265 3.000000 2.583908
vertex 9.766724 3.034791 2.518552
vertex 9.303389 4.076221 2.794123
endloop
endfacet
facet normal -1.000000 0.000000 0.000000
outer loop
vertex 2.000000 3.449197 0.148053
vertex 2.000000 3.298234 1.634245
vertex 2.000000 4.582022 1.207059
endloop
endfacet
facet normal -0.196961 0.974500 -0.107495
outer loop
vertex 8.366585 5.043912 2.697406
vertex 8.893934 5.006660 1.393435
vertex 7.496900 4.707158 1.238037
endloop
endfacet
facet normal -0.200037 -0.952755 -0.228568
outer loop
vertex 2.216020 2.000000 1.178375
vertex 2.284153 2.316370 -0.200000
vertex 3.381830 2.000000 0.158087
endloop
endfacet
facet normal -0.637097 -0.760009 -0.128429
outer loop
vertex 10.800249 2.318826 2.666020
vertex 10.335087 2.938468 1.306660
vertex 11.333979 2.089671 1.374428
endloop
endfacet
facet normal -0.980164 0.143033 -0.137188
outer loop
vertex 2.204731 6.000000 1.222713
vertex 2.000000 4.582022 1.207059
vertex 2.000000 5.746584 2.421233
endloop
endfacet
facet normal 0.496933 0.622285 0.604829
outer loop
vertex 12.353464 5.558899 3.478546
vertex 13.191695 4.363310 4.019944
vertex 13.664113 5.163603 2.808410
endloop
endfacet
facet normal 0.525199 0.628176 0.574073
outer loop
vertex 11.967026 4.958518 4.489049
vertex 13.191695 4.363310 4.019944
vertex 12.353464 5.558899 3.478546
endloop
endfacet
facet normal 0.939679 -0.340607 -0.031459
outer loop
vertex 13.981386 3.800548 2.913311
vertex 13.528315 2.601303 2.364318
vertex 14.023445 4.044297 1.530554
endloop
endfacet
facet normal -0.426155 0.903103 0.052896
outer loop
vertex 10.288845 5.028519 1.331154
vertex 10.775177 5.349822 -0.236405
vertex 9.472823 4.729106 -0.131180
endloop
endfacet
facet normal -0.967989 0.015826 0.250491
outer loop
vertex 2.000000 5.746584 2.421233
vertex 2.000000 4.224115 2.517423
vertex 2.251653 5.154985 3.431089
endloop
endfacet
facet normal 0.107223 -0.006508 0.994214
outer loop
vertex 7.310774 3.321929 2.800000
vertex 8.366585 5.043912 2.697406
vertex 7.164481 4.751285 2.825134
endloop
endfacet
facet normal -0.010281 0.620945 0.783787
outer loop
vertex 4.801173 5.151826 3.434555
vertex 3.463121 4.757210 3.729631
vertex 4.487479 4.069370 4.288001
endloop
endfacet
facet normal 0.176989 0.751437 0.635623
outer loop
vertex 4.801173 5.151826 3.434555
vertex 4.564744 6.056126 2.431320
vertex 3.425493 5.882433 2.953885
endloop
endfacet
facet normal -0.550889 0.428407 0.716233
outer loop
vertex 10.883359 4.978737 3.643456
vertex 11.067135 3.785754 4.498375
vertex 11.967026 4.958518 4.489049
endloop
endfacet
facet normal 0.934862 0.345306 0.082443
outer loop
vertex 13.587741 5.256629 1.393427
vertex 14.023445 4.044297 1.530554
vertex 13.943604 4.599536 0.110324
endloop
endfacet
facet normal -0.248058 -0.966289 0.068934
outer loop
vertex 10.800249 2.318826 2.666020
vertex 11.333979 2.089671 1.374428
vertex 12.218015 1.957029 2.696318
endloop
endfacet
facet normal -0.118616 0.972583 -0.200034
outer loop
vertex 4.481455 6.000000 1.067942
vertex 6.075030 5.977796 0.015020
vertex 4.560452 5.745332 -0.217124
endloop
endfacet
facet normal 0.525175 0.844491 0.105003
outer loop
vertex 13.587741 5.256629 1.393427
vertex 13.208786 5.664207 0.010819
vertex 12.541946 5.947371 1.068676
endloop
endfacet
facet normal -0.840487 0.224060 0.493335
outer loop
vertex 10.883359 4.978737 3.643456
vertex 10.396827 3.662040 3.412570
vertex 11.067135 3.785754 4.498375
endloop
endfacet
facet normal 0.803380 -0.247706 0.541500
outer loop
vertex 13.044109 2.853742 3.548361
vertex 13.191695 4.363310 4.019944
vertex 12.474234 3.214858 4.559030
endloop
endfacet
facet normal -0.056455 0.978717 0.197297
outer loop
vertex 2.000000 5.746584 2.421233
vertex 3.351417 6.000000 1.550827
vertex 2.204731 6.000000 1.222713
endloop
endfacet
facet normal -0.987210 -0.158610 -0.016111
outer loop
vertex 2.000000 3.449197 0.148053
vertex 2.216020 2.000000 1.178375
vertex 2.000000 3.298234 1.634245
endloop
endfacet
facet normal 0.814477 -0.552635 0.176698
outer loop
vertex 6.315861 3.000000 1.893663
vertex 5.755004 2.000000 1.351322
vertex 6.734056 3.256725 0.768949
endloop
endfacet
facet normal -0.971999 -0.213962 -0.097156
outer loop
vertex 2.000000 3.449197 0.148053
vertex 2.284153 2.316370 -0.200000
vertex 2.216020 2.000000 1.178375
endloop
endfacet
facet normal 0.867485 -0.444357 -0.223647
outer loop
vertex 13.100758 2.273944 0.032242
vertex 13.642941 3.460215 -0.221696
vertex 13.692959 2.888407 1.108421
endloop
endfacet
facet normal -0.584169 0.453601 0.673047
outer loop
vertex 11.967026 4.958518 4.489049
vertex 11.067135 3.785754 4.498375
vertex 12.206012 4.117579 5.263227
endloop
endfacet
facet normal 0.000000 -1.000000 0.000000
outer loop
vertex 4.521013 2.000000 1.129585
vertex 5.707157 2.000000 0.121195
vertex 5.755004 2.000000 1.351322
endloop
endfacet
facet normal -0.469368 -0.532467 0.704395
outer loop
vertex 9.766724 3.034791 2.518552
vertex 10.800249 2.318826 2.666020
vertex 10.396827 3.662040 3.412570
endloop
endfacet
facet normal -0.278821 -0.608261 0.743153
outer loop
vertex 11.516507 2.665924 3.750409
vertex 12.474234 3.214858 4.559030
vertex 11.067135 3.785754 4.498375
endloop
endfacet
facet normal 0.000000 -1.000000 0.000000
outer loop
vertex 7.715991 3.000000 1.437764
vertex 9.012363 3.000000 1.285794
vertex 8.466265 3.000000 2.583908
endloop
endfacet
facet normal 0.452280 -0.889995 0.057901
outer loop
vertex 12.218015 1.957029 2.696318
vertex 12.632699 2.079638 1.341723
vertex 13.528315 2.601303 2.364318
endloop
endfacet
facet normal 0.183762 0.001523 0.982970
outer loop
vertex 6.008387 3.334968 3.043456
vertex 7.310774 3.321929 2.800000
vertex 7.164481 4.751285 2.825134
endloop
endfacet
facet normal 0.954910 0.215825 0.203880
outer loop
vertex 6.021973 4.766588 3.059400
vertex 6.278593 5.000000 1.610385
vertex 5.794405 6.052056 2.764471
endloop
endfacet
facet normal -0.631662 -0.512839 0.581377
outer loop
vertex 10.396827 3.662040 3.412570
vertex 10.800249 2.318826 2.666020
vertex 11.516507 2.665924 3.750409
endloop
endfacet
facet normal 0.781622 -0.623011 -0.030402
outer loop
vertex 5.755004 2.000000 1.351322
vertex 5.707157 2.000000 0.121195
vertex 6.734056 3.256725 0.768949
endloop
endfacet
facet normal 0.712672 -0.271713 0.646738
outer loop
vertex 13.981386 3.800548 2.913311
vertex 13.191695 4.363310 4.019944
vertex 13.044109 2.853742 3.548361
endloop
endfacet
facet normal -0.243611 0.966739 -0.077903
outer loop
vertex 8.366585 5.043912 2.697406
vertex 7.496900 4.707158 1.238037
vertex 7.164481 4.751285 2.825134
endloop
endfacet
facet normal -0.081574 -0.964668 -0.250524
outer loop
vertex 6.315861 3.000000 1.893663
vertex 6.734056 3.256725 0.768949
vertex 7.715991 3.000000 1.437764
endloop
endfacet
facet normal -0.948790 0.215735 -0.230773
outer loop
vertex 2.337143 4.559617 -0.200000
vertex 2.000000 3.449197 0.148053
vertex 2.000000 4.582022 1.207059
endloop
endfacet
facet normal 0.868352 -0.495690 0.015984
outer loop
vertex 5.733268 2.009663 2.831795
vertex 5.755004 2.000000 1.351322
vertex 6.315861 3.000000 1.893663
endloop
endfacet
facet normal -0.948325 -0.225085 -0.223642
outer loop
vertex 2.000000 5.688489 0.093457
vertex 2.337143 4.559617 -0.200000
vertex 2.000000 4.582022 1.207059
endloop
endfacet
facet normal 0.588194 -0.801720 -0.106167
outer loop
vertex 12.632699 2.079638 1.341723
vertex 13.692959 2.888407 1.108421
vertex 13.528315 2.601303 2.364318
endloop
endfacet
facet normal -0.979407 -0.199490 -0.031083
outer loop
vertex 2.000000 3.298234 1.634245
vertex 2.247484 1.939873 2.554113
vertex 2.000000 3.041342 3.282977
endloop
endfacet
facet normal 0.882077 0.467729 -0.056310
outer loop
vertex 5.794405 6.052056 2.764471
vertex 6.278593 5.000000 1.610385
vertex 5.716466 6.025713 1.324765
endloop
endfacet
facet normal 0.555786 0.831029 -0.022208
outer loop
vertex 12.541946 5.947371 1.068676
vertex 12.534646 5.985229 2.302557
vertex 13.587741 5.256629 1.393427
endloop
endfacet
facet normal 0.526047 0.652093 0.545939
outer loop
vertex 11.967026 4.958518 4.489049
vertex 12.206012 4.117579 5.263227
vertex 13.191695 4.363310 4.019944
endloop
endfacet
facet normal -0.012489 0.999123 -0.039973
outer loop
vertex 5.716466 6.025713 1.324765
vertex 6.075030 5.977796 0.015020
vertex 4.481455 6.000000 1.067942
endloop
endfacet
facet normal -0.231657 -0.871612 0.432005
outer loop
vertex 10.800249 2.318826 2.666020
vertex 12.218015 1.957029 2.696318
vertex 11.516507 2.665924 3.750409
endloop
endfacet
facet normal 0.770086 -0.482161 0.417718
outer loop
vertex 13.044109 2.853742 3.548361
vertex 13.528315 2.601303 2.364318
vertex 13.981386 3.800548 2.913311
endloop
endfacet
facet normal 0.171150 -0.046303 0.984156
outer loop
vertex 7.310774 3.321929 2.800000
vertex 8.466265 3.000000 2.583908
vertex 8.366585 5.043912 2.697406
endloop
endfacet
facet normal -0.313592 0.433559 0.844800
outer loop
vertex 10.396827 3.662040 3.412570
vertex 9.929835 4.947537 2.579493
vertex 9.303389 4.076221 2.794123
endloop
endfacet
facet normal 0.483688 -0.794493 0.367188
outer loop
vertex 12.218015 1.957029 2.696318
vertex 13.528315 2.601303 2.364318
vertex 13.044109 2.853742 3.548361
endloop
endfacet
facet normal 0.176239 -0.758497 0.627393
outer loop
vertex 11.516507 2.665924 3.750409
vertex 12.218015 1.957029 2.696318
vertex 13.044109 2.853742 3.548361
endloop
endfacet
facet normal 0.281284 0.956393 -0.078690
outer loop
vertex 12.541946 5.947371 1.068676
vertex 13.208786 5.664207 0.010819
vertex 11.841614 6.058701 -0.081605
endloop
endfacet
facet normal 0.617653 -0.779393 0.105124
outer loop
vertex 12.632699 2.079638 1.341723
vertex 13.100758 2.273944 0.032242
vertex 13.692959 2.888407 1.108421
endloop
endfacet
facet normal -0.276345 0.797621 0.536130
outer loop
vertex 3.425493 5.882433 2.953885
vertex 2.000000 5.746584 2.421233
vertex 2.251653 5.154985 3.431089
endloop
endfacet
facet normal -0.556384 0.679168 0.478715
outer loop
vertex 11.091070 5.860341 2.634108
vertex 9.929835 4.947537 2.579493
vertex 10.883359 4.978737 3.643456
endloop
endfacet
facet normal -0.004607 0.999860 0.016101
outer loop
vertex 3.351417 6.000000 1.550827
vertex 3.359592 6.024146 0.053714
vertex 2.204731 6.000000 1.222713
endloop
endfacet
facet normal -0.023771 0.981923 -0.187783
outer loop
vertex 10.288845 5.028519 1.331154
vertex 9.472823 4.729106 -0.131180
vertex 8.893934 5.006660 1.393435
endloop
endfacet
facet normal -0.981647 0.103623 0.160096
outer loop
vertex 2.000000 4.224115 2.517423
vertex 2.000000 3.041342 3.282977
vertex 2.273674 4.088959 4.282962
endloop
endfacet
facet normal 0.184344 0.969821 -0.159575
outer loop
vertex 7.496900 4.707158 1.238037
vertex 6.538791 4.714308 0.174677
vertex 6.278593 5.000000 1.610385
endloop
endfacet
facet normal -0.985450 -0.169290 0.015139
outer loop
vertex 2.000000 3.298234 1.634245
vertex 2.216020 2.000000 1.178375
vertex 2.247484 1.939873 2.554113
endloop
endfacet
facet normal -1.000000 0.000000 0.000000
outer loop
vertex 2.000000 4.582022 1.207059
vertex 2.000000 4.224115 2.517423
vertex 2.000000 5.746584 2.421233
endloop
endfacet
facet normal -0.655393 0.753707 -0.048847
outer loop
vertex 10.288845 5.028519 1.331154
vertex 11.287727 5.894837 1.296130
vertex 10.775177 5.349822 -0.236405
endloop
endfacet
facet normal 0.966806 -0.214823 -0.138336
outer loop
vertex 14.023445 4.044297 1.530554
vertex 13.642941 3.460215 -0.221696
vertex 13.943604 4.599536 0.110324
endloop
endfacet
facet normal -0.609556 0.782903 -0.124515
outer loop
vertex 9.929835 4.947537 2.579493
vertex 11.091070 5.860341 2.634108
vertex 10.288845 5.028519 1.331154
endloop
endfacet
facet normal 0.061252 0.998115 -0.003742
outer loop
vertex 9.929835 4.947537 2.579493
vertex 8.893934 5.006660 1.393435
vertex 8.366585 5.043912 2.697406
endloop
endfacet
facet normal -0.128485 -0.666980 0.733914
outer loop
vertex 2.000000 3.041342 3.282977
vertex 3.406742 3.502050 3.947944
vertex 2.273674 4.088959 4.282962
endloop
endfacet
facet normal -0.660734 -0.581870 0.474192
outer loop
vertex 10.396827 3.662040 3.412570
vertex 11.516507 2.665924 3.750409
vertex 11.067135 3.785754 4.498375
endloop
endfacet
facet normal 0.014022 0.567861 0.823005
outer loop
vertex 3.463121 4.757210 3.729631
vertex 4.801173 5.151826 3.434555
vertex 3.425493 5.882433 2.953885
endloop
endfacet
facet normal -0.540919 -0.819671 -0.188536
outer loop
vertex 9.766724 3.034791 2.518552
vertex 10.335087 2.938468 1.306660
vertex 10.800249 2.318826 2.666020
endloop
endfacet
facet normal -1.000000 0.000000 0.000000
outer loop
vertex 2.000000 3.298234 1.634245
vertex 2.000000 3.041342 3.282977
vertex 2.000000 4.224115 2.517423
endloop
endfacet
facet normal 0.941711 0.335188 -0.028791
outer loop
vertex 13.664113 5.163603 2.808410
vertex 14.023445 4.044297 1.530554
vertex 13.587741 5.256629 1.393427
endloop
endfacet
facet normal -0.980330 0.140006 0.139110
outer loop
vertex 2.000000 5.688489 0.093457
vertex 2.000000 4.582022 1.207059
vertex 2.204731 6.000000 1.222713
endloop
endfacet
facet normal 0.930149 0.353815 0.098169
outer loop
vertex 6.278593 5.000000 1.610385
vertex 6.538791 4.714308 0.174677
vertex 6.075030 5.977796 0.015020
endloop
endfacet
facet normal 0.831899 0.514091 0.208938
outer loop
vertex 5.716466 6.025713 1.324765
vertex 6.278593 5.000000 1.610385
vertex 6.075030 5.977796 0.015020
endloop
endfacet
facet normal 0.581638 0.813148 0.022065
outer loop
vertex 13.664113 5.163603 2.808410
vertex 13.587741 5.256629 1.393427
vertex 12.534646 5.985229 2.302557
endloop
endfacet
facet normal -0.229564 0.755960 0.613045
outer loop
vertex 12.353464 5.558899 3.478546
vertex 11.091070 5.860341 2.634108
vertex 10.883359 4.978737 3.643456
endloop
endfacet
facet normal -0.537943 0.834826 -0.116976
outer loop
vertex 10.775177 5.349822 -0.236405
vertex 11.287727 5.894837 1.296130
vertex 11.841614 6.058701 -0.081605
endloop
endfacet
facet normal -0.187624 -0.575743 0.795812
outer loop
vertex 3.440631 2.321619 3.101931
vertex 3.406742 3.502050 3.947944
vertex 2.000000 3.041342 3.282977
endloop
endfacet
facet normal -1.000000 0.000000 0.000000
outer loop
vertex 2.000000 4.582022 1.207059
vertex 2.000000 3.298234 1.634245
vertex 2.000000 4.224115 2.517423
endloop
endfacet
facet normal 0.973969 -0.011764 0.226374
outer loop
vertex 5.720109 4.007370 4.318709
vertex 6.008387 3.334968 3.043456
vertex 6.021973 4.766588 3.059400
endloop
endfacet
facet normal 0.785231 -0.218613 0.579328
outer loop
vertex 12.206012 4.117579 5.263227
vertex 12.474234 3.214858 4.559030
vertex 13.191695 4.363310 4.019944
endloop
endfacet
facet normal -0.981150 0.107865 0.160344
outer loop
vertex 2.000000 4.224115 2.517423
vertex 2.273674 4.088959 4.282962
vertex 2.251653 5.154985 3.431089
endloop
endfacet
facet normal 0.052060 -0.998617 0.007283
outer loop
vertex 4.545480 1.945335 2.501765
vertex 5.755004 2.000000 1.351322
vertex 5.733268 2.009663 2.831795
endloop
endfacet
facet normal 0.954074 -0.293924 0.057884
outer loop
vertex 13.528315 2.601303 2.364318
vertex 13.692959 2.888407 1.108421
vertex 14.023445 4.044297 1.530554
endloop
endfacet
facet normal 0.144967 -0.974725 -0.169989
outer loop
vertex 3.381830 2.000000 0.158087
vertex 4.518795 2.231546 -0.200000
vertex 4.521013 2.000000 1.129585
endloop
endfacet
facet normal -0.144135 -0.974926 -0.169542
outer loop
vertex 4.521013 2.000000 1.129585
vertex 4.518795 2.231546 -0.200000
vertex 5.707157 2.000000 0.121195
endloop
endfacet
facet normal -0.466843 -0.884039 0.023092
outer loop
vertex 9.518496 3.331665 -0.149217
vertex 10.771801 2.667793 -0.226807
vertex 10.335087 2.938468 1.306660
endloop
endfacet
facet normal -0.525502 -0.842340 -0.119626
outer loop
vertex 11.333979 2.089671 1.374428
vertex 10.771801 2.667793 -0.226807
vertex 11.818510 1.969834 0.089773
endloop
endfacet
facet normal 0.227644 -0.971716 -0.062819
outer loop
vertex 11.818510 1.969834 0.089773
vertex 13.100758 2.273944 0.032242
vertex 12.632699 2.079638 1.341723
endloop
endfacet
facet normal -0.239934 0.946113 -0.217491
outer loop
vertex 3.359592 6.024146 0.053714
vertex 2.000000 5.688489 0.093457
vertex 2.204731 6.000000 1.222713
endloop
endfacet
facet normal 0.200685 -0.012814 0.979572
outer loop
vertex 6.008387 3.334968 3.043456
vertex 7.164481 4.751285 2.825134
vertex 6.021973 4.766588 3.059400
endloop
endfacet
facet normal -0.021777 0.993755 0.109438
outer loop
vertex 12.541946 5.947371 1.068676
vertex 11.841614 6.058701 -0.081605
vertex 11.287727 5.894837 1.296130
endloop
endfacet
facet normal 0.006907 0.999846 0.016163
outer loop
vertex 4.481455 6.000000 1.067942
vertex 3.359592 6.024146 0.053714
vertex 3.351417 6.000000 1.550827
endloop
endfacet
facet normal 0.240395 0.970394 0.023370
outer loop
vertex 7.164481 4.751285 2.825134
vertex 7.496900 4.707158 1.238037
vertex 6.278593 5.000000 1.610385
endloop
endfacet
facet normal -0.200924 -0.952822 0.227506
outer loop
vertex 3.440631 2.321619 3.101931
vertex 3.369117 2.000000 1.691795
vertex 4.545480 1.945335 2.501765
endloop
endfacet
facet normal -0.654797 0.751887 -0.076857
outer loop
vertex 10.288845 5.028519 1.331154
vertex 11.091070 5.860341 2.634108
vertex 11.287727 5.894837 1.296130
endloop
endfacet
facet normal -0.005405 -0.995849 0.090857
outer loop
vertex 11.333979 2.089671 1.374428
vertex 11.818510 1.969834 0.089773
vertex 12.632699 2.079638 1.341723
endloop
endfacet
facet normal 0.000000 -1.000000 0.000000
outer loop
vertex 2.216020 2.000000 1.178375
vertex 3.381830 2.000000 0.158087
vertex 3.369117 2.000000 1.691795
endloop
endfacet
facet normal 0.000000 -1.000000 0.000000
outer loop
vertex 3.369117 2.000000 1.691795
vertex 3.381830 2.000000 0.158087
vertex 4.521013 2.000000 1.129585
endloop
endfacet
facet normal 0.019637 -0.998834 -0.044103
outer loop
vertex 2.247484 1.939873 2.554113
vertex 2.216020 2.000000 1.178375
vertex 3.369117 2.000000 1.691795
endloop
endfacet
facet normal -0.182339 0.708575 0.681670
outer loop
vertex 4.801173 5.151826 3.434555
vertex 5.794405 6.052056 2.764471
vertex 4.564744 6.056126 2.431320
endloop
endfacet
facet normal 0.047442 0.984808 0.167038
outer loop
vertex 7.164481 4.751285 2.825134
vertex 6.278593 5.000000 1.610385
vertex 6.021973 4.766588 3.059400
endloop
endfacet
facet normal 0.824141 0.563213 -0.059857
outer loop
vertex 13.943604 4.599536 0.110324
vertex 13.208786 5.664207 0.010819
vertex 13.587741 5.256629 1.393427
endloop
endfacet
facet normal 0.917788 -0.240930 0.315622
outer loop
vertex 6.008387 3.334968 3.043456
vertex 5.733268 2.009663 2.831795
vertex 6.315861 3.000000 1.893663
endloop
endfacet
facet normal -0.047425 0.998396 -0.030913
outer loop
vertex 12.534646 5.985229 2.302557
vertex 12.541946 5.947371 1.068676
vertex 11.287727 5.894837 1.296130
endloop
endfacet
facet normal -0.012406 0.999108 -0.040372
outer loop
vertex 4.564744 6.056126 2.431320
vertex 5.716466 6.025713 1.324765
vertex 4.481455 6.000000 1.067942
endloop
endfacet
facet normal -0.017127 0.999050 -0.040081
outer loop
vertex 4.564744 6.056126 2.431320
vertex 4.481455 6.000000 1.067942
vertex 3.351417 6.000000 1.550827
endloop
endfacet
facet normal -0.737700 0.157467 0.656509
outer loop
vertex 10.396827 3.662040 3.412570
vertex 10.883359 4.978737 3.643456
vertex 9.929835 4.947537 2.579493
endloop
endfacet
facet normal -0.047291 -0.997249 0.057084
outer loop
vertex 9.012363 3.000000 1.285794
vertex 10.335087 2.938468 1.306660
vertex 9.766724 3.034791 2.518552
endloop
endfacet
facet normal -0.019258 -0.999036 -0.039457
outer loop
vertex 3.369117 2.000000 1.691795
vertex 4.521013 2.000000 1.129585
vertex 4.545480 1.945335 2.501765
endloop
endfacet
facet normal 0.007176 -0.999177 -0.039934
outer loop
vertex 4.545480 1.945335 2.501765
vertex 4.521013 2.000000 1.129585
vertex 5.755004 2.000000 1.351322
endloop
endfacet
facet normal -0.184663 -0.570870 0.800004
outer loop
vertex 3.440631 2.321619 3.101931
vertex 2.000000 3.041342 3.282977
vertex 2.247484 1.939873 2.554113
endloop
endfacet
facet normal -0.012915 0.998052 0.061031
outer loop
vertex 9.929835 4.947537 2.579493
vertex 10.288845 5.028519 1.331154
vertex 8.893934 5.006660 1.393435
endloop
endfacet
facet normal 0.843722 0.233584 0.483292
outer loop
vertex 13.191695 4.363310 4.019944
vertex 13.981386 3.800548 2.913311
vertex 13.664113 5.163603 2.808410
endloop
endfacet
facet normal -0.010038 -0.995598 -0.093188
outer loop
vertex 11.333979 2.089671 1.374428
vertex 12.632699 2.079638 1.341723
vertex 12.218015 1.957029 2.696318
endloop
endfacet
facet normal 0.082149 -0.964158 0.252290
outer loop
vertex 6.315861 3.000000 1.893663
vertex 7.715991 3.000000 1.437764
vertex 7.310774 3.321929 2.800000
endloop
endfacet
facet normal 0.008388 0.999789 -0.018748
outer loop
vertex 5.794405 6.052056 2.764471
vertex 5.716466 6.025713 1.324765
vertex 4.564744 6.056126 2.431320
endloop
endfacet
facet normal -0.083111 0.996449 0.013476
outer loop
vertex 12.534646 5.985229 2.302557
vertex 11.287727 5.894837 1.296130
vertex 11.091070 5.860341 2.634108
endloop
endfacet
facet normal 0.183716 0.966320 -0.180207
outer loop
vertex 4.481455 6.000000 1.067942
vertex 4.560452 5.745332 -0.217124
vertex 3.359592 6.024146 0.053714
endloop
endfacet
facet normal 0.027319 -0.999561 0.011492
outer loop
vertex 8.466265 3.000000 2.583908
vertex 9.012363 3.000000 1.285794
vertex 9.766724 3.034791 2.518552
endloop
endfacet
facet normal 0.436107 -0.751601 0.494881
outer loop
vertex 5.720109 4.007370 4.318709
vertex 4.790504 2.923235 3.491379
vertex 6.008387 3.334968 3.043456
endloop
endfacet
facet normal -0.237969 -0.958699 0.155776
outer loop
vertex 7.310774 3.321929 2.800000
vertex 7.715991 3.000000 1.437764
vertex 8.466265 3.000000 2.583908
endloop
endfacet
facet normal -0.110210 0.989936 0.088769
outer loop
vertex 4.564744 6.056126 2.431320
vertex 3.351417 6.000000 1.550827
vertex 3.425493 5.882433 2.953885
endloop
endfacet
facet normal -0.127580 0.987781 0.089505
outer loop
vertex 3.425493 5.882433 2.953885
vertex 3.351417 6.000000 1.550827
vertex 2.000000 5.746584 2.421233
endloop
endfacet
facet normal 0.210527 -0.955373 0.207221
outer loop
vertex 2.247484 1.939873 2.554113
vertex 3.369117 2.000000 1.691795
vertex 3.440631 2.321619 3.101931
endloop
endfacet
facet normal 0.044720 -0.955852 0.290426
outer loop
vertex 6.008387 3.334968 3.043456
vertex 6.315861 3.000000 1.893663
vertex 7.310774 3.321929 2.800000
endloop
endfacet
facet normal -0.290589 -0.640717 0.710662
outer loop
vertex 12.206012 4.117579 5.263227
vertex 11.067135 3.785754 4.498375
vertex 12.474234 3.214858 4.559030
endloop
endfacet
facet normal -0.003167 0.940280 0.340389
outer loop
vertex 12.353464 5.558899 3.478546
vertex 12.534646 5.985229 2.302557
vertex 11.091070 5.860341 2.634108
endloop
endfacet
facet normal -0.161355 -0.681718 0.713600
outer loop
vertex 4.545480 1.945335 2.501765
vertex 5.733268 2.009663 2.831795
vertex 4.790504 2.923235 3.491379
endloop
endfacet
facet normal 0.124697 -0.721015 0.681607
outer loop
vertex 4.790504 2.923235 3.491379
vertex 3.440631 2.321619 3.101931
vertex 4.545480 1.945335 2.501765
endloop
endfacet
facet normal 0.359408 0.268664 0.893670
outer loop
vertex 5.794405 6.052056 2.764471
vertex 4.801173 5.151826 3.434555
vertex 6.021973 4.766588 3.059400
endloop
endfacet
facet normal -0.016708 0.567141 0.823451
outer loop
vertex 2.251653 5.154985 3.431089
vertex 3.463121 4.757210 3.729631
vertex 3.425493 5.882433 2.953885
endloop
endfacet
facet normal 0.402485 -0.225256 0.887280
outer loop
vertex 4.790504 2.923235 3.491379
vertex 5.733268 2.009663 2.831795
vertex 6.008387 3.334968 3.043456
endloop
endfacet
facet normal 0.164748 -0.895732 0.412943
outer loop
vertex 13.044109 2.853742 3.548361
vertex 12.474234 3.214858 4.559030
vertex 11.516507 2.665924 3.750409
endloop
endfacet
facet normal 0.024812 -0.581886 0.812892
outer loop
vertex 4.790504 2.923235 3.491379
vertex 3.406742 3.502050 3.947944
vertex 3.440631 2.321619 3.101931
endloop
endfacet
facet normal -0.041364 -0.970182 -0.238821
outer loop
vertex 9.012363 3.000000 1.285794
vertex 9.518496 3.331665 -0.149217
vertex 10.335087 2.938468 1.306660
endloop
endfacet
facet normal 0.970347 0.231274 0.070283
outer loop
vertex 13.664113 5.163603 2.808410
vertex 13.981386 3.800548 2.913311
vertex 14.023445 4.044297 1.530554
endloop
endfacet
facet normal 0.399791 0.739455 0.541639
outer loop
vertex 5.720109 4.007370 4.318709
vertex 6.021973 4.766588 3.059400
vertex 4.801173 5.151826 3.434555
endloop
endfacet
facet normal 0.012543 0.624381 0.781019
outer loop
vertex 2.273674 4.088959 4.282962
vertex 3.463121 4.757210 3.729631
vertex 2.251653 5.154985 3.431089
endloop
endfacet
facet normal 0.036375 -0.563852 0.825075
outer loop
vertex 4.790504 2.923235 3.491379
vertex 4.487479 4.069370 4.288001
vertex 3.406742 3.502050 3.947944
endloop
endfacet
facet normal -0.296941 0.866495 0.401263
outer loop
vertex 12.353464 5.558899 3.478546
vertex 10.883359 4.978737 3.643456
vertex 11.967026 4.958518 4.489049
endloop
endfacet
facet normal 0.964670 -0.226938 -0.133834
outer loop
vertex 13.642941 3.460215 -0.221696
vertex 14.023445 4.044297 1.530554
vertex 13.692959 2.888407 1.108421
endloop
endfacet
facet normal 0.011434 0.617056 0.786836
outer loop
vertex 4.801173 5.151826 3.434555
vertex 4.487479 4.069370 4.288001
vertex 5.720109 4.007370 4.318709
endloop
endfacet
facet normal -0.049392 -0.578807 0.813967
outer loop
vertex 4.790504 2.923235 3.491379
vertex 5.720109 4.007370 4.318709
vertex 4.487479 4.069370 4.288001
endloop
endfacet
facet normal 0.349014 0.145345 0.925777
outer loop
vertex 2.273674 4.088959 4.282962
vertex 3.406742 3.502050 3.947944
vertex 3.463121 4.757210 3.729631
endloop
endfacet
facet normal 0.435021 0.822959 0.365369
outer loop
vertex 12.534646 5.985229 2.302557
vertex 12.353464 5.558899 3.478546
vertex 13.664113 5.163603 2.808410
endloop
endfacet
facet normal -0.377971 0.175100 0.909108
outer loop
vertex 3.406742 3.502050 3.947944
vertex 4.487479 4.069370 4.288001
vertex 3.463121 4.757210 3.729631
endloop
endfacet
facet normal -0.644824 -0.762759 -0.049002
outer loop
vertex 10.335087 2.938468 1.306660
vertex 10.771801 2.667793 -0.226807
vertex 11.333979 2.089671 1.374428
endloop
endfacet
facet normal -0.166425 -0.062761 0.984055
outer loop
vertex 8.466265 3.000000 2.583908
vertex 9.303389 4.076221 2.794123
vertex 8.366585 5.043912 2.697406
endloop
endfacet
endsolid Exported from Blender-2.93.0
