solid Exported from Blender-2.93.0
facet normal -0.973404 0.047027 -0.224218
outer loop
vertex 18.781666 5.705750 30.899658
vertex 18.423691 6.816040 32.686600
vertex 18.847099 7.362366 30.963028
endloop
endfacet
facet normal -0.991359 0.034314 0.126612
outer loop
vertex 18.631561 7.212769 29.315933
vertex 18.781666 5.705750 30.899658
vertex 18.847099 7.362366 30.963028
endloop
endfacet
facet normal -0.896779 -0.078320 0.435493
outer loop
vertex 18.241745 6.731079 24.483414
vertex 18.895054 5.443726 25.597198
vertex 18.933826 7.383728 26.025940
endloop
endfacet
facet normal -0.946532 -0.239566 0.216067
outer loop
vertex 18.327957 6.729187 27.449753
vertex 19.043770 5.238281 28.932480
vertex 18.631561 7.212769 29.315933
endloop
endfacet
facet normal -0.931067 0.096376 -0.351889
outer loop
vertex 18.895054 5.443726 25.597198
vertex 18.327957 6.729187 27.449753
vertex 18.933826 7.383728 26.025940
endloop
endfacet
facet normal -0.978489 -0.187616 -0.085788
outer loop
vertex 19.043770 5.238281 28.932480
vertex 18.781666 5.705750 30.899658
vertex 18.631561 7.212769 29.315933
endloop
endfacet
facet normal -0.906034 -0.405226 -0.122040
outer loop
vertex 18.386139 6.371582 34.441177
vertex 18.423691 6.816040 32.686600
vertex 19.362305 4.724609 32.662735
endloop
endfacet
facet normal -0.944325 -0.244873 -0.219742
outer loop
vertex 18.230961 6.976746 22.635895
vertex 18.561089 7.402405 20.742859
vertex 18.859882 5.471985 21.610001
endloop
endfacet
facet normal -0.909663 -0.409070 0.071938
outer loop
vertex 19.362305 4.724609 32.662735
vertex 18.423691 6.816040 32.686600
vertex 18.781666 5.705750 30.899658
endloop
endfacet
facet normal -0.883943 -0.464327 -0.055185
outer loop
vertex 19.362305 4.724609 32.662735
vertex 19.382332 4.471802 34.469070
vertex 18.386139 6.371582 34.441177
endloop
endfacet
facet normal -0.906074 -0.311166 0.286716
outer loop
vertex 18.561089 7.402405 20.742859
vertex 18.142525 6.982239 18.964127
vertex 18.953178 5.311218 19.712418
endloop
endfacet
facet normal -0.946066 -0.231699 -0.226440
outer loop
vertex 18.142525 6.982239 18.964127
vertex 18.455570 7.459351 17.168030
vertex 18.852814 5.483032 17.530563
endloop
endfacet
facet normal -0.894297 -0.444222 -0.053849
outer loop
vertex 18.241745 6.731079 24.483414
vertex 18.230961 6.976746 22.635895
vertex 19.298351 4.735840 23.395386
endloop
endfacet
facet normal -0.985216 -0.167863 -0.034217
outer loop
vertex 18.859882 5.471985 21.610001
vertex 18.561089 7.402405 20.742859
vertex 18.953178 5.311218 19.712418
endloop
endfacet
facet normal -0.888427 -0.456807 0.045010
outer loop
vertex 18.895054 5.443726 25.597198
vertex 19.478474 4.458740 27.116348
vertex 18.327957 6.729187 27.449753
endloop
endfacet
facet normal -0.993622 -0.082840 -0.076504
outer loop
vertex 18.574314 7.546448 15.531494
vertex 18.748287 5.658142 15.316620
vertex 18.455570 7.459351 17.168030
endloop
endfacet
facet normal -0.893047 -0.449481 -0.020826
outer loop
vertex 19.478474 4.458740 27.116348
vertex 19.043770 5.238281 28.932480
vertex 18.327957 6.729187 27.449753
endloop
endfacet
facet normal -0.995439 -0.093733 0.017765
outer loop
vertex 18.548790 7.502502 13.869385
vertex 18.748287 5.658142 15.316620
vertex 18.574314 7.546448 15.531494
endloop
endfacet
facet normal -0.908317 -0.415045 0.051941
outer loop
vertex 18.230961 6.976746 22.635895
vertex 18.859882 5.471985 21.610001
vertex 19.298351 4.735840 23.395386
endloop
endfacet
facet normal -0.987621 -0.146813 0.055233
outer loop
vertex 18.452526 7.520264 12.195297
vertex 18.792583 5.561584 13.069519
vertex 18.548790 7.502502 13.869385
endloop
endfacet
facet normal -0.965167 -0.097351 -0.242851
outer loop
vertex 18.410122 7.767517 8.570099
vertex 18.556702 5.927490 8.725143
vertex 18.015968 7.108643 10.400711
endloop
endfacet
facet normal -0.981004 -0.191464 0.031172
outer loop
vertex 18.455570 7.459351 17.168030
vertex 18.748287 5.658142 15.316620
vertex 18.852814 5.483032 17.530563
endloop
endfacet
facet normal -0.886758 -0.462026 -0.013882
outer loop
vertex 18.895054 5.443726 25.597198
vertex 18.241745 6.731079 24.483414
vertex 19.298351 4.735840 23.395386
endloop
endfacet
facet normal -0.900969 -0.433823 0.007282
outer loop
vertex 18.852814 5.483032 17.530563
vertex 18.953178 5.311218 19.712418
vertex 18.142525 6.982239 18.964127
endloop
endfacet
facet normal -0.966183 -0.055754 0.251756
outer loop
vertex 18.410122 7.767517 8.570099
vertex 17.961334 7.180664 6.717789
vertex 18.556702 5.927490 8.725143
endloop
endfacet
facet normal -0.865310 -0.501222 0.003814
outer loop
vertex 19.043770 5.238281 28.932480
vertex 19.788876 3.965576 30.725647
vertex 18.781666 5.705750 30.899658
endloop
endfacet
facet normal -0.865210 -0.501374 0.005930
outer loop
vertex 19.362305 4.724609 32.662735
vertex 18.781666 5.705750 30.899658
vertex 19.788876 3.965576 30.725647
endloop
endfacet
facet normal -0.639166 0.761863 0.105037
outer loop
vertex 18.230961 6.976746 22.635895
vertex 18.241745 6.731079 24.483414
vertex 19.178303 7.567444 24.116119
endloop
endfacet
facet normal -0.883148 -0.362324 0.297944
outer loop
vertex 18.949196 5.243958 10.899323
vertex 18.452526 7.520264 12.195297
vertex 18.015968 7.108643 10.400711
endloop
endfacet
facet normal -0.992819 -0.118744 -0.014469
outer loop
vertex 18.748287 5.658142 15.316620
vertex 18.548790 7.502502 13.869385
vertex 18.792583 5.561584 13.069519
endloop
endfacet
facet normal -0.980932 -0.189521 -0.043051
outer loop
vertex 18.949196 5.243958 10.899323
vertex 18.792583 5.561584 13.069519
vertex 18.452526 7.520264 12.195297
endloop
endfacet
facet normal -0.607907 0.772697 0.182723
outer loop
vertex 18.423691 6.816040 32.686600
vertex 18.386139 6.371582 34.441177
vertex 19.535912 7.286743 34.396378
endloop
endfacet
facet normal -0.896442 -0.442580 0.022689
outer loop
vertex 18.556702 5.927490 8.725143
vertex 18.949196 5.243958 10.899323
vertex 18.015968 7.108643 10.400711
endloop
endfacet
facet normal -0.892154 -0.451404 -0.017201
outer loop
vertex 18.890053 5.345337 6.712784
vertex 18.556702 5.927490 8.725143
vertex 17.961334 7.180664 6.717789
endloop
endfacet
facet normal -0.865248 -0.501337 0.002696
outer loop
vertex 19.923515 3.665955 25.082489
vertex 18.895054 5.443726 25.597198
vertex 19.298351 4.735840 23.395386
endloop
endfacet
facet normal -0.864744 -0.502204 0.002882
outer loop
vertex 19.788876 3.965576 30.725647
vertex 19.043770 5.238281 28.932480
vertex 20.128834 3.369080 28.787048
endloop
endfacet
facet normal -0.864516 -0.502529 0.008774
outer loop
vertex 19.043770 5.238281 28.932480
vertex 19.478474 4.458740 27.116348
vertex 20.128834 3.369080 28.787048
endloop
endfacet
facet normal -0.864752 -0.502156 0.006515
outer loop
vertex 19.923515 3.665955 25.082489
vertex 19.478474 4.458740 27.116348
vertex 18.895054 5.443726 25.597198
endloop
endfacet
facet normal -0.866952 -0.498392 -0.000400
outer loop
vertex 18.953178 5.311218 19.712418
vertex 19.881325 3.695557 21.149673
vertex 18.859882 5.471985 21.610001
endloop
endfacet
facet normal -0.868602 -0.495507 0.001818
outer loop
vertex 18.852814 5.483032 17.530563
vertex 18.748287 5.658142 15.316620
vertex 19.734043 3.934692 16.553177
endloop
endfacet
facet normal -0.825261 -0.560484 -0.069293
outer loop
vertex 19.382332 4.471802 34.469070
vertex 19.362305 4.724609 32.662735
vertex 20.542995 2.778015 34.346313
endloop
endfacet
facet normal -0.867584 -0.497290 0.000749
outer loop
vertex 18.852814 5.483032 17.530563
vertex 19.841297 3.760498 18.854858
vertex 18.953178 5.311218 19.712418
endloop
endfacet
facet normal -0.843228 -0.536987 0.024725
outer loop
vertex 19.362305 4.724609 32.662735
vertex 19.788876 3.965576 30.725647
vertex 20.574924 2.808716 32.408142
endloop
endfacet
facet normal -0.846104 -0.532549 -0.022374
outer loop
vertex 20.574924 2.808716 32.408142
vertex 20.542995 2.778015 34.346313
vertex 19.362305 4.724609 32.662735
endloop
endfacet
facet normal -0.866141 -0.499755 0.006656
outer loop
vertex 19.298351 4.735840 23.395386
vertex 18.859882 5.471985 21.610001
vertex 19.881325 3.695557 21.149673
endloop
endfacet
facet normal -0.868095 -0.496381 0.004217
outer loop
vertex 19.758114 3.884521 14.423431
vertex 18.748287 5.658142 15.316620
vertex 18.792583 5.561584 13.069519
endloop
endfacet
facet normal -0.223473 0.951759 -0.210272
outer loop
vertex 18.631561 7.212769 29.315933
vertex 19.618061 7.135010 27.915543
vertex 18.327957 6.729187 27.449753
endloop
endfacet
facet normal -0.867949 -0.496652 0.000546
outer loop
vertex 18.556702 5.927490 8.725143
vertex 19.549759 4.192017 8.717896
vertex 18.949196 5.243958 10.899323
endloop
endfacet
facet normal -0.867509 -0.497420 0.001055
outer loop
vertex 19.841297 3.760498 18.854858
vertex 19.881325 3.695557 21.149673
vertex 18.953178 5.311218 19.712418
endloop
endfacet
facet normal -0.868533 -0.495533 0.009848
outer loop
vertex 18.792583 5.561584 13.069519
vertex 18.949196 5.243958 10.899323
vertex 19.854893 3.686951 12.430481
endloop
endfacet
facet normal -0.868300 -0.496032 0.002921
outer loop
vertex 19.734043 3.934692 16.553177
vertex 19.841297 3.760498 18.854858
vertex 18.852814 5.483032 17.530563
endloop
endfacet
facet normal -0.868613 -0.495488 0.001855
outer loop
vertex 19.734043 3.934692 16.553177
vertex 18.748287 5.658142 15.316620
vertex 19.758114 3.884521 14.423431
endloop
endfacet
facet normal -0.823278 -0.566189 0.040550
outer loop
vertex 19.478474 4.458740 27.116348
vertex 19.923515 3.665955 25.082489
vertex 20.748055 2.593140 26.843475
endloop
endfacet
facet normal -0.867951 -0.496650 -0.000102
outer loop
vertex 18.556702 5.927490 8.725143
vertex 18.890053 5.345337 6.712784
vertex 19.549759 4.192017 8.717896
endloop
endfacet
facet normal -0.850554 -0.525402 0.022584
outer loop
vertex 19.298351 4.735840 23.395386
vertex 19.881325 3.695557 21.149673
vertex 20.564850 2.672119 23.082809
endloop
endfacet
facet normal -0.828819 -0.557991 -0.041293
outer loop
vertex 20.128834 3.369080 28.787048
vertex 19.478474 4.458740 27.116348
vertex 20.748055 2.593140 26.843475
endloop
endfacet
facet normal -0.868994 -0.494774 0.006850
outer loop
vertex 19.758114 3.884521 14.423431
vertex 18.792583 5.561584 13.069519
vertex 19.854893 3.686951 12.430481
endloop
endfacet
facet normal -0.853188 -0.521402 -0.014497
outer loop
vertex 19.923515 3.665955 25.082489
vertex 19.298351 4.735840 23.395386
vertex 20.564850 2.672119 23.082809
endloop
endfacet
facet normal -0.620992 -0.773131 0.128989
outer loop
vertex 19.788876 3.965576 30.725647
vertex 20.128834 3.369080 28.787048
vertex 21.282169 2.719482 30.446014
endloop
endfacet
facet normal -0.669103 0.743034 -0.014176
outer loop
vertex 19.178303 7.567444 24.116119
vertex 18.241745 6.731079 24.483414
vertex 18.933826 7.383728 26.025940
endloop
endfacet
facet normal -0.649540 -0.733340 -0.200775
outer loop
vertex 20.574924 2.808716 32.408142
vertex 19.788876 3.965576 30.725647
vertex 21.282169 2.719482 30.446014
endloop
endfacet
facet normal -0.867719 -0.497054 0.000802
outer loop
vertex 20.034599 3.348450 10.471664
vertex 18.949196 5.243958 10.899323
vertex 19.549759 4.192017 8.717896
endloop
endfacet
facet normal -0.867146 -0.498012 0.006507
outer loop
vertex 20.034599 3.348450 10.471664
vertex 19.854893 3.686951 12.430481
vertex 18.949196 5.243958 10.899323
endloop
endfacet
facet normal -0.414261 0.894978 0.165537
outer loop
vertex 19.312885 7.530090 18.931030
vertex 18.455570 7.459351 17.168030
vertex 18.142525 6.982239 18.964127
endloop
endfacet
facet normal -0.867552 -0.497346 -0.000634
outer loop
vertex 19.549759 4.192017 8.717896
vertex 18.890053 5.345337 6.712784
vertex 19.869003 3.637695 6.712463
endloop
endfacet
facet normal -0.423871 0.898703 -0.112546
outer loop
vertex 19.312885 7.530090 18.931030
vertex 18.142525 6.982239 18.964127
vertex 18.561089 7.402405 20.742859
endloop
endfacet
facet normal -0.435288 0.894793 -0.099346
outer loop
vertex 18.015968 7.108643 10.400711
vertex 18.452526 7.520264 12.195297
vertex 19.182522 7.688477 10.511871
endloop
endfacet
facet normal -0.153025 0.969526 0.191316
outer loop
vertex 19.540016 7.245544 22.320770
vertex 18.561089 7.402405 20.742859
vertex 18.230961 6.976746 22.635895
endloop
endfacet
facet normal -0.092905 0.955482 0.280039
outer loop
vertex 18.423691 6.816040 32.686600
vertex 19.748589 7.001160 32.494522
vertex 18.847099 7.362366 30.963028
endloop
endfacet
facet normal -0.542599 -0.808511 0.227805
outer loop
vertex 20.564850 2.672119 23.082809
vertex 21.419266 2.605713 24.882217
vertex 19.923515 3.665955 25.082489
endloop
endfacet
facet normal -0.833621 -0.552329 -0.002956
outer loop
vertex 20.765949 2.371338 17.658234
vertex 19.841297 3.760498 18.854858
vertex 19.734043 3.934692 16.553177
endloop
endfacet
facet normal -0.584131 -0.785359 -0.204945
outer loop
vertex 21.419266 2.605713 24.882217
vertex 20.748055 2.593140 26.843475
vertex 19.923515 3.665955 25.082489
endloop
endfacet
facet normal -0.248464 -0.924262 0.289836
outer loop
vertex 20.748055 2.593140 26.843475
vertex 21.578754 2.921570 28.602936
vertex 20.128834 3.369080 28.787048
endloop
endfacet
facet normal -0.613019 -0.789982 -0.011663
outer loop
vertex 19.881325 3.695557 21.149673
vertex 19.841297 3.760498 18.854858
vertex 21.399406 2.542419 19.464615
endloop
endfacet
facet normal -0.596199 -0.777337 -0.200730
outer loop
vertex 20.564850 2.672119 23.082809
vertex 19.881325 3.695557 21.149673
vertex 21.383617 2.524475 21.222702
endloop
endfacet
facet normal -0.309107 -0.938694 -0.152665
outer loop
vertex 21.578754 2.921570 28.602936
vertex 21.282169 2.719482 30.446014
vertex 20.128834 3.369080 28.787048
endloop
endfacet
facet normal -0.830842 -0.556495 0.003719
outer loop
vertex 19.758114 3.884521 14.423431
vertex 20.817982 2.309753 15.561035
vertex 19.734043 3.934692 16.553177
endloop
endfacet
facet normal -0.527095 0.838534 -0.137958
outer loop
vertex 19.044407 7.849182 6.643066
vertex 17.961334 7.180664 6.717789
vertex 18.410122 7.767517 8.570099
endloop
endfacet
facet normal -0.614333 -0.788930 -0.013570
outer loop
vertex 19.881325 3.695557 21.149673
vertex 21.399406 2.542419 19.464615
vertex 21.383617 2.524475 21.222702
endloop
endfacet
facet normal -0.451048 0.866295 0.214681
outer loop
vertex 18.015968 7.108643 10.400711
vertex 19.182522 7.688477 10.511871
vertex 18.410122 7.767517 8.570099
endloop
endfacet
facet normal -0.657509 -0.692788 0.296187
outer loop
vertex 20.765949 2.371338 17.658234
vertex 21.399406 2.542419 19.464615
vertex 19.841297 3.760498 18.854858
endloop
endfacet
facet normal -0.833136 -0.553050 -0.004430
outer loop
vertex 20.817982 2.309753 15.561035
vertex 20.765949 2.371338 17.658234
vertex 19.734043 3.934692 16.553177
endloop
endfacet
facet normal -0.649596 -0.759023 0.043701
outer loop
vertex 19.758114 3.884521 14.423431
vertex 19.854893 3.686951 12.430481
vertex 21.374245 2.453247 13.587326
endloop
endfacet
facet normal -0.372082 0.893251 0.252306
outer loop
vertex 18.327957 6.729187 27.449753
vertex 19.618061 7.135010 27.915543
vertex 18.933826 7.383728 26.025940
endloop
endfacet
facet normal -0.159792 0.973426 -0.164039
outer loop
vertex 18.423691 6.816040 32.686600
vertex 19.535912 7.286743 34.396378
vertex 19.748589 7.001160 32.494522
endloop
endfacet
facet normal -0.849282 -0.527598 -0.018986
outer loop
vertex 20.034599 3.348450 10.471664
vertex 19.549759 4.192017 8.717896
vertex 20.745438 2.273560 8.544296
endloop
endfacet
facet normal -0.711045 -0.657874 -0.248227
outer loop
vertex 21.374245 2.453247 13.587326
vertex 20.817982 2.309753 15.561035
vertex 19.758114 3.884521 14.423431
endloop
endfacet
facet normal -0.848148 -0.529637 0.011381
outer loop
vertex 19.869003 3.637695 6.712463
vertex 20.745438 2.273560 8.544296
vertex 19.549759 4.192017 8.717896
endloop
endfacet
facet normal -0.603840 -0.792915 0.081625
outer loop
vertex 20.034599 3.348450 10.471664
vertex 21.474525 2.400269 11.913086
vertex 19.854893 3.686951 12.430481
endloop
endfacet
facet normal -0.246559 0.944072 -0.218943
outer loop
vertex 19.178303 7.567444 24.116119
vertex 19.540016 7.245544 22.320770
vertex 18.230961 6.976746 22.635895
endloop
endfacet
facet normal -0.624464 -0.780950 -0.012691
outer loop
vertex 21.374245 2.453247 13.587326
vertex 19.854893 3.686951 12.430481
vertex 21.474525 2.400269 11.913086
endloop
endfacet
facet normal -0.830329 -0.556997 -0.017517
outer loop
vertex 20.745438 2.273560 8.544296
vertex 19.869003 3.637695 6.712463
vertex 20.931503 2.055847 6.647263
endloop
endfacet
facet normal -0.552649 -0.797779 0.241097
outer loop
vertex 21.531822 2.238220 10.229935
vertex 20.034599 3.348450 10.471664
vertex 20.745438 2.273560 8.544296
endloop
endfacet
facet normal -0.588630 -0.806348 0.057595
outer loop
vertex 21.474525 2.400269 11.913086
vertex 20.034599 3.348450 10.471664
vertex 21.531822 2.238220 10.229935
endloop
endfacet
facet normal 0.578810 0.801814 -0.148568
outer loop
vertex 18.631561 7.212769 29.315933
vertex 18.847099 7.362366 30.963028
vertex 20.209579 6.225952 30.137955
endloop
endfacet
facet normal 0.420908 -0.886544 0.192034
outer loop
vertex 21.282169 2.719482 30.446014
vertex 21.723598 3.332581 32.308899
vertex 20.574924 2.808716 32.408142
endloop
endfacet
facet normal 0.418439 0.874232 0.246225
outer loop
vertex 20.209579 6.225952 30.137955
vertex 19.618061 7.135010 27.915543
vertex 18.631561 7.212769 29.315933
endloop
endfacet
facet normal 0.577714 0.802175 -0.150868
outer loop
vertex 20.209579 6.225952 30.137955
vertex 18.847099 7.362366 30.963028
vertex 19.748589 7.001160 32.494522
endloop
endfacet
facet normal 0.830128 0.557499 0.009116
outer loop
vertex 19.748589 7.001160 32.494522
vertex 19.535912 7.286743 34.396378
vertex 20.715622 5.530396 34.379974
endloop
endfacet
facet normal 0.424576 -0.904632 0.037098
outer loop
vertex 20.817982 2.309753 15.561035
vertex 21.884430 2.878418 17.222672
vertex 20.765949 2.371338 17.658234
endloop
endfacet
facet normal 0.414389 -0.910068 -0.007589
outer loop
vertex 21.723598 3.332581 32.308899
vertex 20.542995 2.778015 34.346313
vertex 20.574924 2.808716 32.408142
endloop
endfacet
facet normal 0.782184 0.602654 0.158100
outer loop
vertex 18.933826 7.383728 26.025940
vertex 20.217705 6.148499 24.382584
vertex 19.178303 7.567444 24.116119
endloop
endfacet
facet normal 0.743610 0.642602 -0.184683
outer loop
vertex 18.933826 7.383728 26.025940
vertex 19.618061 7.135010 27.915543
vertex 20.501312 5.676453 26.396851
endloop
endfacet
facet normal 0.405236 -0.879872 0.248212
outer loop
vertex 20.564850 2.672119 23.082809
vertex 21.383617 2.524475 21.222702
vertex 21.777664 3.187500 22.929688
endloop
endfacet
facet normal 0.563821 0.779724 -0.272280
outer loop
vertex 19.540016 7.245544 22.320770
vertex 20.182617 6.199402 20.655609
vertex 18.561089 7.402405 20.742859
endloop
endfacet
facet normal 0.579635 0.759964 0.294070
outer loop
vertex 19.312885 7.530090 18.931030
vertex 18.561089 7.402405 20.742859
vertex 20.182617 6.199402 20.655609
endloop
endfacet
facet normal 0.519144 0.850653 0.082941
outer loop
vertex 19.961208 6.568176 16.883926
vertex 18.574314 7.546448 15.531494
vertex 18.455570 7.459351 17.168030
endloop
endfacet
facet normal 0.580780 -0.805569 0.117271
outer loop
vertex 21.703686 3.613953 34.340347
vertex 20.542995 2.778015 34.346313
vertex 21.723598 3.332581 32.308899
endloop
endfacet
facet normal 0.859654 0.508989 -0.043869
outer loop
vertex 20.715622 5.530396 34.379974
vertex 20.799919 5.207642 32.287125
vertex 19.748589 7.001160 32.494522
endloop
endfacet
facet normal 0.862830 0.505487 0.002503
outer loop
vertex 20.799919 5.207642 32.287125
vertex 20.209579 6.225952 30.137955
vertex 19.748589 7.001160 32.494522
endloop
endfacet
facet normal 0.456150 0.852281 -0.256016
outer loop
vertex 19.312885 7.530090 18.931030
vertex 19.961208 6.568176 16.883926
vertex 18.455570 7.459351 17.168030
endloop
endfacet
facet normal 0.729202 0.681909 0.057135
outer loop
vertex 20.501312 5.676453 26.396851
vertex 20.217705 6.148499 24.382584
vertex 18.933826 7.383728 26.025940
endloop
endfacet
facet normal 0.800637 0.596681 0.054324
outer loop
vertex 19.540016 7.245544 22.320770
vertex 19.178303 7.567444 24.116119
vertex 20.217705 6.148499 24.382584
endloop
endfacet
facet normal 0.614809 0.788094 -0.030278
outer loop
vertex 18.548790 7.502502 13.869385
vertex 18.574314 7.546448 15.531494
vertex 20.080044 6.344238 14.814209
endloop
endfacet
facet normal 0.858439 0.512570 -0.018821
outer loop
vertex 20.209579 6.225952 30.137955
vertex 20.859394 5.069763 28.288895
vertex 19.618061 7.135010 27.915543
endloop
endfacet
facet normal 0.592071 0.805483 -0.025500
outer loop
vertex 18.452526 7.520264 12.195297
vertex 18.548790 7.502502 13.869385
vertex 20.049686 6.361084 12.663254
endloop
endfacet
facet normal 0.856836 0.515579 0.003160
outer loop
vertex 20.859394 5.069763 28.288895
vertex 20.501312 5.676453 26.396851
vertex 19.618061 7.135010 27.915543
endloop
endfacet
facet normal 0.360777 -0.909869 -0.204887
outer loop
vertex 21.777664 3.187500 22.929688
vertex 21.419266 2.605713 24.882217
vertex 20.564850 2.672119 23.082809
endloop
endfacet
facet normal 0.597513 0.774910 -0.206136
outer loop
vertex 19.182522 7.688477 10.511871
vertex 19.858410 6.669006 8.638611
vertex 18.410122 7.767517 8.570099
endloop
endfacet
facet normal 0.608254 0.792117 -0.050781
outer loop
vertex 18.574314 7.546448 15.531494
vertex 19.961208 6.568176 16.883926
vertex 20.080044 6.344238 14.814209
endloop
endfacet
facet normal 0.846604 0.531967 -0.016491
outer loop
vertex 20.430447 5.743958 18.686798
vertex 19.312885 7.530090 18.931030
vertex 20.182617 6.199402 20.655609
endloop
endfacet
facet normal 0.848820 0.528280 0.020590
outer loop
vertex 19.961208 6.568176 16.883926
vertex 19.312885 7.530090 18.931030
vertex 20.430447 5.743958 18.686798
endloop
endfacet
facet normal 0.859611 0.510836 -0.010738
outer loop
vertex 19.540016 7.245544 22.320770
vertex 20.217705 6.148499 24.382584
vertex 20.759373 5.199158 22.582123
endloop
endfacet
facet normal 0.582094 0.781454 0.224714
outer loop
vertex 19.044407 7.849182 6.643066
vertex 18.410122 7.767517 8.570099
vertex 19.858410 6.669006 8.638611
endloop
endfacet
facet normal 0.604165 0.796856 -0.002286
outer loop
vertex 20.080044 6.344238 14.814209
vertex 20.049686 6.361084 12.663254
vertex 18.548790 7.502502 13.869385
endloop
endfacet
facet normal 0.501704 0.811840 0.298679
outer loop
vertex 19.182522 7.688477 10.511871
vertex 18.452526 7.520264 12.195297
vertex 20.049686 6.361084 12.663254
endloop
endfacet
facet normal 0.858506 0.512721 0.009187
outer loop
vertex 19.540016 7.245544 22.320770
vertex 20.759373 5.199158 22.582123
vertex 20.182617 6.199402 20.655609
endloop
endfacet
facet normal 0.866457 0.499249 -0.001448
outer loop
vertex 20.799919 5.207642 32.287125
vertex 21.233246 4.449829 30.299835
vertex 20.209579 6.225952 30.137955
endloop
endfacet
facet normal 0.693814 -0.681393 0.233079
outer loop
vertex 20.748055 2.593140 26.843475
vertex 21.419266 2.605713 24.882217
vertex 21.701317 3.503540 26.667374
endloop
endfacet
facet normal 0.566599 -0.817875 0.100226
outer loop
vertex 21.374245 2.453247 13.587326
vertex 21.878647 3.005676 15.243835
vertex 20.817982 2.309753 15.561035
endloop
endfacet
facet normal 0.847708 0.530264 -0.014519
outer loop
vertex 20.049686 6.361084 12.663254
vertex 20.339954 5.841370 10.629837
vertex 19.182522 7.688477 10.511871
endloop
endfacet
facet normal 0.866666 0.498834 -0.007340
outer loop
vertex 20.859394 5.069763 28.288895
vertex 20.209579 6.225952 30.137955
vertex 21.233246 4.449829 30.299835
endloop
endfacet
facet normal 0.846804 0.531659 0.016194
outer loop
vertex 19.182522 7.688477 10.511871
vertex 20.339954 5.841370 10.629837
vertex 19.858410 6.669006 8.638611
endloop
endfacet
facet normal 0.837652 0.545879 -0.018851
outer loop
vertex 19.858410 6.669006 8.638611
vertex 20.164219 6.130432 6.631531
vertex 19.044407 7.849182 6.643066
endloop
endfacet
facet normal 0.866346 0.499419 -0.004941
outer loop
vertex 20.501312 5.676453 26.396851
vertex 21.206078 4.437073 24.696518
vertex 20.217705 6.148499 24.382584
endloop
endfacet
facet normal 0.887985 0.458542 -0.034948
outer loop
vertex 21.703686 3.613953 34.340347
vertex 20.799919 5.207642 32.287125
vertex 20.715622 5.530396 34.379974
endloop
endfacet
facet normal 0.662479 -0.727891 -0.176907
outer loop
vertex 21.578754 2.921570 28.602936
vertex 20.748055 2.593140 26.843475
vertex 21.701317 3.503540 26.667374
endloop
endfacet
facet normal 0.866190 0.499706 -0.002891
outer loop
vertex 21.206078 4.437073 24.696518
vertex 20.759373 5.199158 22.582123
vertex 20.217705 6.148499 24.382584
endloop
endfacet
facet normal 0.868158 0.496272 -0.003849
outer loop
vertex 20.981106 4.780518 16.433090
vertex 20.080044 6.344238 14.814209
vertex 19.961208 6.568176 16.883926
endloop
endfacet
facet normal 0.896076 0.440812 -0.052273
outer loop
vertex 21.703686 3.613953 34.340347
vertex 21.723598 3.332581 32.308899
vertex 20.799919 5.207642 32.287125
endloop
endfacet
facet normal 0.868194 0.496219 -0.002282
outer loop
vertex 20.182617 6.199402 20.655609
vertex 20.759373 5.199158 22.582123
vertex 21.238842 4.351562 20.688858
endloop
endfacet
facet normal 0.440412 -0.886029 0.144881
outer loop
vertex 20.745438 2.273560 8.544296
vertex 20.931503 2.055847 6.647263
vertex 21.918110 2.840027 8.443848
endloop
endfacet
facet normal 0.868209 0.496169 -0.005491
outer loop
vertex 20.430447 5.743958 18.686798
vertex 20.182617 6.199402 20.655609
vertex 21.238842 4.351562 20.688858
endloop
endfacet
facet normal 0.868628 0.495464 0.000430
outer loop
vertex 19.961208 6.568176 16.883926
vertex 20.430447 5.743958 18.686798
vertex 20.981106 4.780518 16.433090
endloop
endfacet
facet normal 0.896612 0.441996 0.026959
outer loop
vertex 21.723598 3.332581 32.308899
vertex 21.233246 4.449829 30.299835
vertex 20.799919 5.207642 32.287125
endloop
endfacet
facet normal 0.875911 0.482345 -0.011107
outer loop
vertex 20.859394 5.069763 28.288895
vertex 21.701317 3.503540 26.667374
vertex 20.501312 5.676453 26.396851
endloop
endfacet
facet normal 0.869273 0.494262 -0.008397
outer loop
vertex 20.049686 6.361084 12.663254
vertex 20.080044 6.344238 14.814209
vertex 21.042465 4.641541 14.222275
endloop
endfacet
facet normal 0.410599 -0.887268 -0.210154
outer loop
vertex 20.745438 2.273560 8.544296
vertex 21.918110 2.840027 8.443848
vertex 21.531822 2.238220 10.229935
endloop
endfacet
facet normal 0.874835 0.484327 0.009580
outer loop
vertex 21.206078 4.437073 24.696518
vertex 20.501312 5.676453 26.396851
vertex 21.701317 3.503540 26.667374
endloop
endfacet
facet normal 0.867585 0.497278 -0.003121
outer loop
vertex 20.339954 5.841370 10.629837
vertex 20.880672 4.885071 8.570328
vertex 19.858410 6.669006 8.638611
endloop
endfacet
facet normal 0.948596 0.305648 -0.082127
outer loop
vertex 21.233246 4.449829 30.299835
vertex 21.578754 2.921570 28.602936
vertex 20.859394 5.069763 28.288895
endloop
endfacet
facet normal 0.869504 0.493877 -0.006914
outer loop
vertex 20.981106 4.780518 16.433090
vertex 21.042465 4.641541 14.222275
vertex 20.080044 6.344238 14.814209
endloop
endfacet
facet normal 0.867460 0.497489 -0.004270
outer loop
vertex 21.238842 4.351562 20.688858
vertex 21.338909 4.158752 18.553864
vertex 20.430447 5.743958 18.686798
endloop
endfacet
facet normal 0.395536 -0.916985 -0.051858
outer loop
vertex 21.399406 2.542419 19.464615
vertex 20.765949 2.371338 17.658234
vertex 21.884430 2.878418 17.222672
endloop
endfacet
facet normal 0.867601 0.497261 -0.000590
outer loop
vertex 20.981106 4.780518 16.433090
vertex 20.430447 5.743958 18.686798
vertex 21.338909 4.158752 18.553864
endloop
endfacet
facet normal 0.867620 0.497227 -0.001229
outer loop
vertex 20.880672 4.885071 8.570328
vertex 20.164219 6.130432 6.631531
vertex 19.858410 6.669006 8.638611
endloop
endfacet
facet normal 0.867533 0.497368 -0.003281
outer loop
vertex 20.339954 5.841370 10.629837
vertex 20.049686 6.361084 12.663254
vertex 21.163658 4.415649 12.300385
endloop
endfacet
facet normal 0.867493 0.497435 -0.003763
outer loop
vertex 20.049686 6.361084 12.663254
vertex 21.042465 4.641541 14.222275
vertex 21.163658 4.415649 12.300385
endloop
endfacet
facet normal 0.928881 0.334348 0.159347
outer loop
vertex 21.578754 2.921570 28.602936
vertex 21.701317 3.503540 26.667374
vertex 20.859394 5.069763 28.288895
endloop
endfacet
facet normal 0.503941 -0.858179 0.097838
outer loop
vertex 20.931503 2.055847 6.647263
vertex 21.992275 2.668335 6.555862
vertex 21.918110 2.840027 8.443848
endloop
endfacet
facet normal 0.536021 -0.842362 -0.055739
outer loop
vertex 21.878647 3.005676 15.243835
vertex 21.884430 2.878418 17.222672
vertex 20.817982 2.309753 15.561035
endloop
endfacet
facet normal 0.893773 0.447677 -0.027471
outer loop
vertex 21.206078 4.437073 24.696518
vertex 21.777664 3.187500 22.929688
vertex 20.759373 5.199158 22.582123
endloop
endfacet
facet normal 0.972445 0.007810 -0.233001
outer loop
vertex 21.723598 3.332581 32.308899
vertex 21.282169 2.719482 30.446014
vertex 21.233246 4.449829 30.299835
endloop
endfacet
facet normal 0.890451 0.454546 0.022012
outer loop
vertex 20.759373 5.199158 22.582123
vertex 21.777664 3.187500 22.929688
vertex 21.238842 4.351562 20.688858
endloop
endfacet
facet normal 0.985715 0.041658 0.163187
outer loop
vertex 21.233246 4.449829 30.299835
vertex 21.282169 2.719482 30.446014
vertex 21.578754 2.921570 28.602936
endloop
endfacet
facet normal 0.868396 0.495866 -0.002388
outer loop
vertex 21.159798 4.386963 6.642273
vertex 20.164219 6.130432 6.631531
vertex 20.880672 4.885071 8.570328
endloop
endfacet
facet normal 0.866602 0.498983 -0.004171
outer loop
vertex 20.339954 5.841370 10.629837
vertex 21.395466 4.005737 10.332275
vertex 20.880672 4.885071 8.570328
endloop
endfacet
facet normal 0.866776 0.498695 -0.001776
outer loop
vertex 21.395466 4.005737 10.332275
vertex 20.339954 5.841370 10.629837
vertex 21.163658 4.415649 12.300385
endloop
endfacet
facet normal 0.975169 0.093145 -0.200922
outer loop
vertex 21.206078 4.437073 24.696518
vertex 21.701317 3.503540 26.667374
vertex 21.419266 2.605713 24.882217
endloop
endfacet
facet normal 0.966724 0.134596 0.217553
outer loop
vertex 21.419266 2.605713 24.882217
vertex 21.777664 3.187500 22.929688
vertex 21.206078 4.437073 24.696518
endloop
endfacet
facet normal 0.973439 0.010308 -0.228715
outer loop
vertex 21.238842 4.351562 20.688858
vertex 21.777664 3.187500 22.929688
vertex 21.383617 2.524475 21.222702
endloop
endfacet
facet normal 0.907733 0.418441 -0.030468
outer loop
vertex 20.981106 4.780518 16.433090
vertex 21.338909 4.158752 18.553864
vertex 21.884430 2.878418 17.222672
endloop
endfacet
facet normal 0.891361 0.453280 -0.003755
outer loop
vertex 21.042465 4.641541 14.222275
vertex 20.981106 4.780518 16.433090
vertex 21.878647 3.005676 15.243835
endloop
endfacet
facet normal 0.997310 0.060584 0.041273
outer loop
vertex 21.399406 2.542419 19.464615
vertex 21.338909 4.158752 18.553864
vertex 21.238842 4.351562 20.688858
endloop
endfacet
facet normal 0.898871 0.437470 0.025507
outer loop
vertex 21.884430 2.878418 17.222672
vertex 21.878647 3.005676 15.243835
vertex 20.981106 4.780518 16.433090
endloop
endfacet
facet normal 0.996598 0.081828 0.009785
outer loop
vertex 21.383617 2.524475 21.222702
vertex 21.399406 2.542419 19.464615
vertex 21.238842 4.351562 20.688858
endloop
endfacet
facet normal 0.989544 0.136582 0.046347
outer loop
vertex 21.374245 2.453247 13.587326
vertex 21.163658 4.415649 12.300385
vertex 21.042465 4.641541 14.222275
endloop
endfacet
facet normal 0.903468 0.240029 -0.355150
outer loop
vertex 21.374245 2.453247 13.587326
vertex 21.042465 4.641541 14.222275
vertex 21.878647 3.005676 15.243835
endloop
endfacet
facet normal 0.892051 0.451764 0.012431
outer loop
vertex 20.880672 4.885071 8.570328
vertex 21.918110 2.840027 8.443848
vertex 21.159798 4.386963 6.642273
endloop
endfacet
facet normal 0.890462 0.453809 -0.033687
outer loop
vertex 20.880672 4.885071 8.570328
vertex 21.395466 4.005737 10.332275
vertex 21.918110 2.840027 8.443848
endloop
endfacet
facet normal 0.958243 0.166759 0.232299
outer loop
vertex 21.884430 2.878418 17.222672
vertex 21.338909 4.158752 18.553864
vertex 21.399406 2.542419 19.464615
endloop
endfacet
facet normal 0.986884 0.135302 0.088057
outer loop
vertex 21.163658 4.415649 12.300385
vertex 21.474525 2.400269 11.913086
vertex 21.395466 4.005737 10.332275
endloop
endfacet
facet normal 0.988362 0.141939 0.054708
outer loop
vertex 21.374245 2.453247 13.587326
vertex 21.474525 2.400269 11.913086
vertex 21.163658 4.415649 12.300385
endloop
endfacet
facet normal 0.899884 0.436108 -0.004309
outer loop
vertex 21.159798 4.386963 6.642273
vertex 21.918110 2.840027 8.443848
vertex 21.992275 2.668335 6.555862
endloop
endfacet
facet normal 0.996800 0.075354 0.026678
outer loop
vertex 21.474525 2.400269 11.913086
vertex 21.531822 2.238220 10.229935
vertex 21.395466 4.005737 10.332275
endloop
endfacet
facet normal 0.971063 0.061553 0.230757
outer loop
vertex 21.918110 2.840027 8.443848
vertex 21.395466 4.005737 10.332275
vertex 21.531822 2.238220 10.229935
endloop
endfacet
endsolid Exported from Blender-2.93.0
