solid Exported from Blender-2.93.0
facet normal -1.000000 0.000000 0.000000
outer loop
vertex 2.000000 11.000000 4.500000
vertex 2.000000 14.000000 3.000000
vertex 2.000000 11.000000 3.000000
endloop
endfacet
facet normal 0.000000 1.000000 0.000000
outer loop
vertex 20.005768 14.000000 4.500000
vertex 24.500000 14.000000 3.000000
vertex 20.005768 14.000000 3.000000
endloop
endfacet
facet normal 1.000000 0.000000 0.000000
outer loop
vertex 24.500000 5.000000 4.500000
vertex 24.500000 2.000000 3.000000
vertex 24.500000 5.000000 3.000000
endloop
endfacet
facet normal 0.000000 -1.000000 0.000000
outer loop
vertex 6.505767 2.000000 4.500000
vertex 2.000000 2.000000 3.000000
vertex 6.505767 2.000000 3.000000
endloop
endfacet
facet normal 0.000000 0.000000 1.000000
outer loop
vertex 2.000000 5.000000 4.500000
vertex 6.505767 2.000000 4.500000
vertex 6.505767 5.000000 4.500000
endloop
endfacet
facet normal 0.000000 0.000000 1.000000
outer loop
vertex 20.005768 5.000000 4.500000
vertex 24.500000 2.000000 4.500000
vertex 24.500000 5.000000 4.500000
endloop
endfacet
facet normal 0.000000 0.000000 1.000000
outer loop
vertex 15.505768 5.000000 4.500000
vertex 20.005768 2.000000 4.500000
vertex 20.005768 5.000000 4.500000
endloop
endfacet
facet normal 0.000000 0.000000 1.000000
outer loop
vertex 11.005768 5.000000 4.500000
vertex 15.505768 2.000000 4.500000
vertex 15.505768 5.000000 4.500000
endloop
endfacet
facet normal 0.000000 0.000000 1.000000
outer loop
vertex 6.505767 5.000000 4.500000
vertex 11.005768 2.000000 4.500000
vertex 11.005768 5.000000 4.500000
endloop
endfacet
facet normal 0.000000 -1.000000 0.000000
outer loop
vertex 24.500000 2.000000 4.500000
vertex 20.005768 2.000000 3.000000
vertex 24.500000 2.000000 3.000000
endloop
endfacet
facet normal 0.000000 -1.000000 0.000000
outer loop
vertex 20.005768 2.000000 4.500000
vertex 15.505768 2.000000 3.000000
vertex 20.005768 2.000000 3.000000
endloop
endfacet
facet normal 0.000000 -1.000000 0.000000
outer loop
vertex 15.505768 2.000000 4.500000
vertex 11.005768 2.000000 3.000000
vertex 15.505768 2.000000 3.000000
endloop
endfacet
facet normal 0.000000 -1.000000 0.000000
outer loop
vertex 11.005768 2.000000 4.500000
vertex 6.505767 2.000000 3.000000
vertex 11.005768 2.000000 3.000000
endloop
endfacet
facet normal 0.000000 1.000000 0.000000
outer loop
vertex 2.000000 14.000000 4.500000
vertex 6.505767 14.000000 3.000000
vertex 2.000000 14.000000 3.000000
endloop
endfacet
facet normal 0.000000 1.000000 0.000000
outer loop
vertex 6.505767 14.000000 4.500000
vertex 11.005768 14.000000 3.000000
vertex 6.505767 14.000000 3.000000
endloop
endfacet
facet normal 0.000000 1.000000 0.000000
outer loop
vertex 11.005768 14.000000 4.500000
vertex 15.505768 14.000000 3.000000
vertex 11.005768 14.000000 3.000000
endloop
endfacet
facet normal 0.000000 1.000000 0.000000
outer loop
vertex 15.505768 14.000000 4.500000
vertex 20.005768 14.000000 3.000000
vertex 15.505768 14.000000 3.000000
endloop
endfacet
facet normal 0.000000 0.000000 1.000000
outer loop
vertex 6.505767 14.000000 4.500000
vertex 11.005768 11.000000 4.500000
vertex 11.005768 14.000000 4.500000
endloop
endfacet
facet normal 0.000000 0.000000 1.000000
outer loop
vertex 6.505767 11.000000 4.500000
vertex 11.005768 8.000000 4.500000
vertex 11.005768 11.000000 4.500000
endloop
endfacet
facet normal 0.000000 0.000000 1.000000
outer loop
vertex 6.505767 8.000000 4.500000
vertex 11.005768 5.000000 4.500000
vertex 11.005768 8.000000 4.500000
endloop
endfacet
facet normal 0.000000 0.000000 1.000000
outer loop
vertex 11.005768 14.000000 4.500000
vertex 15.505768 11.000000 4.500000
vertex 15.505768 14.000000 4.500000
endloop
endfacet
facet normal 0.000000 0.000000 1.000000
outer loop
vertex 11.005768 11.000000 4.500000
vertex 15.505768 8.000000 4.500000
vertex 15.505768 11.000000 4.500000
endloop
endfacet
facet normal 0.000000 0.000000 1.000000
outer loop
vertex 11.005768 8.000000 4.500000
vertex 15.505768 5.000000 4.500000
vertex 15.505768 8.000000 4.500000
endloop
endfacet
facet normal 0.000000 0.000000 1.000000
outer loop
vertex 15.505768 14.000000 4.500000
vertex 20.005768 11.000000 4.500000
vertex 20.005768 14.000000 4.500000
endloop
endfacet
facet normal 0.000000 0.000000 1.000000
outer loop
vertex 15.505768 11.000000 4.500000
vertex 20.005768 8.000000 4.500000
vertex 20.005768 11.000000 4.500000
endloop
endfacet
facet normal 0.000000 0.000000 1.000000
outer loop
vertex 15.505768 8.000000 4.500000
vertex 20.005768 5.000000 4.500000
vertex 20.005768 8.000000 4.500000
endloop
endfacet
facet normal 0.000000 0.000000 1.000000
outer loop
vertex 20.005768 14.000000 4.500000
vertex 24.500000 11.000000 4.500000
vertex 24.500000 14.000000 4.500000
endloop
endfacet
facet normal 0.000000 0.000000 1.000000
outer loop
vertex 20.005768 11.000000 4.500000
vertex 24.500000 8.000000 4.500000
vertex 24.500000 11.000000 4.500000
endloop
endfacet
facet normal 0.000000 0.000000 1.000000
outer loop
vertex 20.005768 8.000000 4.500000
vertex 24.500000 5.000000 4.500000
vertex 24.500000 8.000000 4.500000
endloop
endfacet
facet normal 0.000000 0.000000 1.000000
outer loop
vertex 2.000000 14.000000 4.500000
vertex 6.505767 11.000000 4.500000
vertex 6.505767 14.000000 4.500000
endloop
endfacet
facet normal 0.000000 0.000000 1.000000
outer loop
vertex 2.000000 11.000000 4.500000
vertex 6.505767 8.000000 4.500000
vertex 6.505767 11.000000 4.500000
endloop
endfacet
facet normal 0.000000 0.000000 1.000000
outer loop
vertex 2.000000 8.000000 4.500000
vertex 6.505767 5.000000 4.500000
vertex 6.505767 8.000000 4.500000
endloop
endfacet
facet normal 1.000000 0.000000 0.000000
outer loop
vertex 24.500000 14.000000 4.500000
vertex 24.500000 11.000000 3.000000
vertex 24.500000 14.000000 3.000000
endloop
endfacet
facet normal 1.000000 0.000000 0.000000
outer loop
vertex 24.500000 11.000000 4.500000
vertex 24.500000 8.000000 3.000000
vertex 24.500000 11.000000 3.000000
endloop
endfacet
facet normal 1.000000 0.000000 0.000000
outer loop
vertex 24.500000 8.000000 4.500000
vertex 24.500000 5.000000 3.000000
vertex 24.500000 8.000000 3.000000
endloop
endfacet
facet normal -1.000000 0.000000 0.000000
outer loop
vertex 2.000000 2.000000 4.500000
vertex 2.000000 5.000000 3.000000
vertex 2.000000 2.000000 3.000000
endloop
endfacet
facet normal -1.000000 0.000000 0.000000
outer loop
vertex 2.000000 5.000000 4.500000
vertex 2.000000 8.000000 3.000000
vertex 2.000000 5.000000 3.000000
endloop
endfacet
facet normal -1.000000 0.000000 0.000000
outer loop
vertex 2.000000 8.000000 4.500000
vertex 2.000000 11.000000 3.000000
vertex 2.000000 8.000000 3.000000
endloop
endfacet
facet normal -1.000000 0.000000 0.000000
outer loop
vertex 2.000000 8.000000 1.500000
vertex 2.000000 11.000000 0.000000
vertex 2.000000 8.000000 0.000000
endloop
endfacet
facet normal -1.000000 0.000000 0.000000
outer loop
vertex 2.000000 8.000000 3.000000
vertex 2.000000 11.000000 1.500000
vertex 2.000000 8.000000 1.500000
endloop
endfacet
facet normal -1.000000 0.000000 0.000000
outer loop
vertex 2.000000 5.000000 1.500000
vertex 2.000000 8.000000 0.000000
vertex 2.000000 5.000000 0.000000
endloop
endfacet
facet normal -1.000000 0.000000 0.000000
outer loop
vertex 2.000000 5.000000 3.000000
vertex 2.000000 8.000000 1.500000
vertex 2.000000 5.000000 1.500000
endloop
endfacet
facet normal -1.000000 0.000000 0.000000
outer loop
vertex 2.000000 2.000000 1.500000
vertex 2.000000 5.000000 0.000000
vertex 2.000000 2.000000 0.000000
endloop
endfacet
facet normal -1.000000 0.000000 0.000000
outer loop
vertex 2.000000 2.000000 3.000000
vertex 2.000000 5.000000 1.500000
vertex 2.000000 2.000000 1.500000
endloop
endfacet
facet normal 1.000000 0.000000 0.000000
outer loop
vertex 24.500000 8.000000 1.500000
vertex 24.500000 5.000000 0.000000
vertex 24.500000 8.000000 0.000000
endloop
endfacet
facet normal 1.000000 0.000000 0.000000
outer loop
vertex 24.500000 8.000000 3.000000
vertex 24.500000 5.000000 1.500000
vertex 24.500000 8.000000 1.500000
endloop
endfacet
facet normal 1.000000 0.000000 0.000000
outer loop
vertex 24.500000 11.000000 1.500000
vertex 24.500000 8.000000 0.000000
vertex 24.500000 11.000000 0.000000
endloop
endfacet
facet normal 1.000000 0.000000 0.000000
outer loop
vertex 24.500000 11.000000 3.000000
vertex 24.500000 8.000000 1.500000
vertex 24.500000 11.000000 1.500000
endloop
endfacet
facet normal 1.000000 0.000000 0.000000
outer loop
vertex 24.500000 14.000000 1.500000
vertex 24.500000 11.000000 0.000000
vertex 24.500000 14.000000 0.000000
endloop
endfacet
facet normal 1.000000 0.000000 0.000000
outer loop
vertex 24.500000 14.000000 3.000000
vertex 24.500000 11.000000 1.500000
vertex 24.500000 14.000000 1.500000
endloop
endfacet
facet normal 0.000000 1.000000 0.000000
outer loop
vertex 15.505768 14.000000 1.500000
vertex 20.005768 14.000000 0.000000
vertex 15.505768 14.000000 0.000000
endloop
endfacet
facet normal 0.000000 1.000000 0.000000
outer loop
vertex 15.505768 14.000000 3.000000
vertex 20.005768 14.000000 1.500000
vertex 15.505768 14.000000 1.500000
endloop
endfacet
facet normal 0.000000 1.000000 0.000000
outer loop
vertex 11.005768 14.000000 1.500000
vertex 15.505768 14.000000 0.000000
vertex 11.005768 14.000000 0.000000
endloop
endfacet
facet normal 0.000000 1.000000 0.000000
outer loop
vertex 11.005768 14.000000 3.000000
vertex 15.505768 14.000000 1.500000
vertex 11.005768 14.000000 1.500000
endloop
endfacet
facet normal 0.000000 1.000000 0.000000
outer loop
vertex 6.505767 14.000000 1.500000
vertex 11.005768 14.000000 0.000000
vertex 6.505767 14.000000 0.000000
endloop
endfacet
facet normal 0.000000 1.000000 0.000000
outer loop
vertex 6.505767 14.000000 3.000000
vertex 11.005768 14.000000 1.500000
vertex 6.505767 14.000000 1.500000
endloop
endfacet
facet normal 0.000000 1.000000 0.000000
outer loop
vertex 2.000000 14.000000 1.500000
vertex 6.505767 14.000000 0.000000
vertex 2.000000 14.000000 0.000000
endloop
endfacet
facet normal 0.000000 1.000000 0.000000
outer loop
vertex 2.000000 14.000000 3.000000
vertex 6.505767 14.000000 1.500000
vertex 2.000000 14.000000 1.500000
endloop
endfacet
facet normal 0.000000 -1.000000 0.000000
outer loop
vertex 11.005768 2.000000 1.500000
vertex 6.505767 2.000000 0.000000
vertex 11.005768 2.000000 0.000000
endloop
endfacet
facet normal 0.000000 -1.000000 0.000000
outer loop
vertex 11.005768 2.000000 3.000000
vertex 6.505767 2.000000 1.500000
vertex 11.005768 2.000000 1.500000
endloop
endfacet
facet normal 0.000000 -1.000000 0.000000
outer loop
vertex 15.505768 2.000000 1.500000
vertex 11.005768 2.000000 0.000000
vertex 15.505768 2.000000 0.000000
endloop
endfacet
facet normal 0.000000 -1.000000 0.000000
outer loop
vertex 15.505768 2.000000 3.000000
vertex 11.005768 2.000000 1.500000
vertex 15.505768 2.000000 1.500000
endloop
endfacet
facet normal 0.000000 -1.000000 0.000000
outer loop
vertex 20.005768 2.000000 1.500000
vertex 15.505768 2.000000 0.000000
vertex 20.005768 2.000000 0.000000
endloop
endfacet
facet normal 0.000000 -1.000000 0.000000
outer loop
vertex 20.005768 2.000000 3.000000
vertex 15.505768 2.000000 1.500000
vertex 20.005768 2.000000 1.500000
endloop
endfacet
facet normal 0.000000 -1.000000 0.000000
outer loop
vertex 24.500000 2.000000 1.500000
vertex 20.005768 2.000000 0.000000
vertex 24.500000 2.000000 0.000000
endloop
endfacet
facet normal 0.000000 -1.000000 0.000000
outer loop
vertex 24.500000 2.000000 3.000000
vertex 20.005768 2.000000 1.500000
vertex 24.500000 2.000000 1.500000
endloop
endfacet
facet normal 0.000000 -1.000000 0.000000
outer loop
vertex 6.505767 2.000000 1.500000
vertex 2.000000 2.000000 0.000000
vertex 6.505767 2.000000 0.000000
endloop
endfacet
facet normal 0.000000 -1.000000 0.000000
outer loop
vertex 6.505767 2.000000 3.000000
vertex 2.000000 2.000000 1.500000
vertex 6.505767 2.000000 1.500000
endloop
endfacet
facet normal 1.000000 0.000000 0.000000
outer loop
vertex 24.500000 5.000000 1.500000
vertex 24.500000 2.000000 0.000000
vertex 24.500000 5.000000 0.000000
endloop
endfacet
facet normal 1.000000 0.000000 0.000000
outer loop
vertex 24.500000 5.000000 3.000000
vertex 24.500000 2.000000 1.500000
vertex 24.500000 5.000000 1.500000
endloop
endfacet
facet normal 0.000000 1.000000 0.000000
outer loop
vertex 20.005768 14.000000 1.500000
vertex 24.500000 14.000000 0.000000
vertex 20.005768 14.000000 0.000000
endloop
endfacet
facet normal 0.000000 1.000000 0.000000
outer loop
vertex 20.005768 14.000000 3.000000
vertex 24.500000 14.000000 1.500000
vertex 20.005768 14.000000 1.500000
endloop
endfacet
facet normal -1.000000 0.000000 0.000000
outer loop
vertex 2.000000 11.000000 1.500000
vertex 2.000000 14.000000 0.000000
vertex 2.000000 11.000000 0.000000
endloop
endfacet
facet normal -1.000000 0.000000 0.000000
outer loop
vertex 2.000000 11.000000 3.000000
vertex 2.000000 14.000000 1.500000
vertex 2.000000 11.000000 1.500000
endloop
endfacet
facet normal 0.000000 -1.000000 0.000000
outer loop
vertex 6.505767 2.000000 4.500000
vertex 2.000000 2.000000 4.500000
vertex 2.000000 2.000000 3.000000
endloop
endfacet
facet normal 0.000000 0.000000 1.000000
outer loop
vertex 2.000000 5.000000 4.500000
vertex 2.000000 2.000000 4.500000
vertex 6.505767 2.000000 4.500000
endloop
endfacet
facet normal 0.000000 0.000000 1.000000
outer loop
vertex 20.005768 5.000000 4.500000
vertex 20.005768 2.000000 4.500000
vertex 24.500000 2.000000 4.500000
endloop
endfacet
facet normal 0.000000 0.000000 1.000000
outer loop
vertex 15.505768 5.000000 4.500000
vertex 15.505768 2.000000 4.500000
vertex 20.005768 2.000000 4.500000
endloop
endfacet
facet normal 0.000000 0.000000 1.000000
outer loop
vertex 11.005768 5.000000 4.500000
vertex 11.005768 2.000000 4.500000
vertex 15.505768 2.000000 4.500000
endloop
endfacet
facet normal 0.000000 0.000000 1.000000
outer loop
vertex 6.505767 5.000000 4.500000
vertex 6.505767 2.000000 4.500000
vertex 11.005768 2.000000 4.500000
endloop
endfacet
facet normal 0.000000 -1.000000 0.000000
outer loop
vertex 24.500000 2.000000 4.500000
vertex 20.005768 2.000000 4.500000
vertex 20.005768 2.000000 3.000000
endloop
endfacet
facet normal 0.000000 -1.000000 0.000000
outer loop
vertex 20.005768 2.000000 4.500000
vertex 15.505768 2.000000 4.500000
vertex 15.505768 2.000000 3.000000
endloop
endfacet
facet normal 0.000000 -1.000000 0.000000
outer loop
vertex 15.505768 2.000000 4.500000
vertex 11.005768 2.000000 4.500000
vertex 11.005768 2.000000 3.000000
endloop
endfacet
facet normal 0.000000 -1.000000 0.000000
outer loop
vertex 11.005768 2.000000 4.500000
vertex 6.505767 2.000000 4.500000
vertex 6.505767 2.000000 3.000000
endloop
endfacet
facet normal 0.000000 0.000000 1.000000
outer loop
vertex 6.505767 14.000000 4.500000
vertex 6.505767 11.000000 4.500000
vertex 11.005768 11.000000 4.500000
endloop
endfacet
facet normal 0.000000 0.000000 1.000000
outer loop
vertex 6.505767 11.000000 4.500000
vertex 6.505767 8.000000 4.500000
vertex 11.005768 8.000000 4.500000
endloop
endfacet
facet normal 0.000000 0.000000 1.000000
outer loop
vertex 6.505767 8.000000 4.500000
vertex 6.505767 5.000000 4.500000
vertex 11.005768 5.000000 4.500000
endloop
endfacet
facet normal 0.000000 0.000000 1.000000
outer loop
vertex 11.005768 14.000000 4.500000
vertex 11.005768 11.000000 4.500000
vertex 15.505768 11.000000 4.500000
endloop
endfacet
facet normal 0.000000 0.000000 1.000000
outer loop
vertex 11.005768 11.000000 4.500000
vertex 11.005768 8.000000 4.500000
vertex 15.505768 8.000000 4.500000
endloop
endfacet
facet normal 0.000000 0.000000 1.000000
outer loop
vertex 11.005768 8.000000 4.500000
vertex 11.005768 5.000000 4.500000
vertex 15.505768 5.000000 4.500000
endloop
endfacet
facet normal 0.000000 0.000000 1.000000
outer loop
vertex 15.505768 14.000000 4.500000
vertex 15.505768 11.000000 4.500000
vertex 20.005768 11.000000 4.500000
endloop
endfacet
facet normal 0.000000 0.000000 1.000000
outer loop
vertex 15.505768 11.000000 4.500000
vertex 15.505768 8.000000 4.500000
vertex 20.005768 8.000000 4.500000
endloop
endfacet
facet normal 0.000000 0.000000 1.000000
outer loop
vertex 15.505768 8.000000 4.500000
vertex 15.505768 5.000000 4.500000
vertex 20.005768 5.000000 4.500000
endloop
endfacet
facet normal 0.000000 0.000000 1.000000
outer loop
vertex 20.005768 14.000000 4.500000
vertex 20.005768 11.000000 4.500000
vertex 24.500000 11.000000 4.500000
endloop
endfacet
facet normal 0.000000 0.000000 1.000000
outer loop
vertex 20.005768 11.000000 4.500000
vertex 20.005768 8.000000 4.500000
vertex 24.500000 8.000000 4.500000
endloop
endfacet
facet normal 0.000000 0.000000 1.000000
outer loop
vertex 20.005768 8.000000 4.500000
vertex 20.005768 5.000000 4.500000
vertex 24.500000 5.000000 4.500000
endloop
endfacet
facet normal 0.000000 0.000000 1.000000
outer loop
vertex 2.000000 14.000000 4.500000
vertex 2.000000 11.000000 4.500000
vertex 6.505767 11.000000 4.500000
endloop
endfacet
facet normal 0.000000 0.000000 1.000000
outer loop
vertex 2.000000 11.000000 4.500000
vertex 2.000000 8.000000 4.500000
vertex 6.505767 8.000000 4.500000
endloop
endfacet
facet normal 0.000000 0.000000 1.000000
outer loop
vertex 2.000000 8.000000 4.500000
vertex 2.000000 5.000000 4.500000
vertex 6.505767 5.000000 4.500000
endloop
endfacet
facet normal 0.000000 -1.000000 0.000000
outer loop
vertex 11.005768 2.000000 1.500000
vertex 6.505767 2.000000 1.500000
vertex 6.505767 2.000000 0.000000
endloop
endfacet
facet normal 0.000000 -1.000000 0.000000
outer loop
vertex 11.005768 2.000000 3.000000
vertex 6.505767 2.000000 3.000000
vertex 6.505767 2.000000 1.500000
endloop
endfacet
facet normal 0.000000 -1.000000 0.000000
outer loop
vertex 15.505768 2.000000 1.500000
vertex 11.005768 2.000000 1.500000
vertex 11.005768 2.000000 0.000000
endloop
endfacet
facet normal 0.000000 -1.000000 0.000000
outer loop
vertex 15.505768 2.000000 3.000000
vertex 11.005768 2.000000 3.000000
vertex 11.005768 2.000000 1.500000
endloop
endfacet
facet normal 0.000000 -1.000000 0.000000
outer loop
vertex 20.005768 2.000000 1.500000
vertex 15.505768 2.000000 1.500000
vertex 15.505768 2.000000 0.000000
endloop
endfacet
facet normal 0.000000 -1.000000 0.000000
outer loop
vertex 20.005768 2.000000 3.000000
vertex 15.505768 2.000000 3.000000
vertex 15.505768 2.000000 1.500000
endloop
endfacet
facet normal 0.000000 -1.000000 0.000000
outer loop
vertex 24.500000 2.000000 1.500000
vertex 20.005768 2.000000 1.500000
vertex 20.005768 2.000000 0.000000
endloop
endfacet
facet normal 0.000000 -1.000000 0.000000
outer loop
vertex 24.500000 2.000000 3.000000
vertex 20.005768 2.000000 3.000000
vertex 20.005768 2.000000 1.500000
endloop
endfacet
facet normal 0.000000 -1.000000 0.000000
outer loop
vertex 6.505767 2.000000 1.500000
vertex 2.000000 2.000000 1.500000
vertex 2.000000 2.000000 0.000000
endloop
endfacet
facet normal 0.000000 -1.000000 0.000000
outer loop
vertex 6.505767 2.000000 3.000000
vertex 2.000000 2.000000 3.000000
vertex 2.000000 2.000000 1.500000
endloop
endfacet
facet normal 1.000000 0.000000 0.000000
outer loop
vertex 24.500000 5.000000 4.500000
vertex 24.500000 2.000000 4.500000
vertex 24.500000 2.000000 3.000000
endloop
endfacet
facet normal 1.000000 0.000000 0.000000
outer loop
vertex 24.500000 14.000000 4.500000
vertex 24.500000 11.000000 4.500000
vertex 24.500000 11.000000 3.000000
endloop
endfacet
facet normal 1.000000 0.000000 0.000000
outer loop
vertex 24.500000 11.000000 4.500000
vertex 24.500000 8.000000 4.500000
vertex 24.500000 8.000000 3.000000
endloop
endfacet
facet normal 1.000000 0.000000 0.000000
outer loop
vertex 24.500000 8.000000 4.500000
vertex 24.500000 5.000000 4.500000
vertex 24.500000 5.000000 3.000000
endloop
endfacet
facet normal 1.000000 0.000000 0.000000
outer loop
vertex 24.500000 8.000000 1.500000
vertex 24.500000 5.000000 1.500000
vertex 24.500000 5.000000 0.000000
endloop
endfacet
facet normal 1.000000 0.000000 0.000000
outer loop
vertex 24.500000 8.000000 3.000000
vertex 24.500000 5.000000 3.000000
vertex 24.500000 5.000000 1.500000
endloop
endfacet
facet normal 1.000000 0.000000 0.000000
outer loop
vertex 24.500000 11.000000 1.500000
vertex 24.500000 8.000000 1.500000
vertex 24.500000 8.000000 0.000000
endloop
endfacet
facet normal 1.000000 0.000000 0.000000
outer loop
vertex 24.500000 11.000000 3.000000
vertex 24.500000 8.000000 3.000000
vertex 24.500000 8.000000 1.500000
endloop
endfacet
facet normal 1.000000 0.000000 0.000000
outer loop
vertex 24.500000 14.000000 1.500000
vertex 24.500000 11.000000 1.500000
vertex 24.500000 11.000000 0.000000
endloop
endfacet
facet normal 1.000000 0.000000 0.000000
outer loop
vertex 24.500000 14.000000 3.000000
vertex 24.500000 11.000000 3.000000
vertex 24.500000 11.000000 1.500000
endloop
endfacet
facet normal 1.000000 0.000000 0.000000
outer loop
vertex 24.500000 5.000000 1.500000
vertex 24.500000 2.000000 1.500000
vertex 24.500000 2.000000 0.000000
endloop
endfacet
facet normal 1.000000 0.000000 0.000000
outer loop
vertex 24.500000 5.000000 3.000000
vertex 24.500000 2.000000 3.000000
vertex 24.500000 2.000000 1.500000
endloop
endfacet
facet normal 0.000000 1.000000 0.000000
outer loop
vertex 20.005768 14.000000 4.500000
vertex 24.500000 14.000000 4.500000
vertex 24.500000 14.000000 3.000000
endloop
endfacet
facet normal 0.000000 1.000000 0.000000
outer loop
vertex 2.000000 14.000000 4.500000
vertex 6.505767 14.000000 4.500000
vertex 6.505767 14.000000 3.000000
endloop
endfacet
facet normal 0.000000 1.000000 0.000000
outer loop
vertex 6.505767 14.000000 4.500000
vertex 11.005768 14.000000 4.500000
vertex 11.005768 14.000000 3.000000
endloop
endfacet
facet normal 0.000000 1.000000 0.000000
outer loop
vertex 11.005768 14.000000 4.500000
vertex 15.505768 14.000000 4.500000
vertex 15.505768 14.000000 3.000000
endloop
endfacet
facet normal 0.000000 1.000000 0.000000
outer loop
vertex 15.505768 14.000000 4.500000
vertex 20.005768 14.000000 4.500000
vertex 20.005768 14.000000 3.000000
endloop
endfacet
facet normal 0.000000 1.000000 0.000000
outer loop
vertex 15.505768 14.000000 1.500000
vertex 20.005768 14.000000 1.500000
vertex 20.005768 14.000000 0.000000
endloop
endfacet
facet normal 0.000000 1.000000 0.000000
outer loop
vertex 15.505768 14.000000 3.000000
vertex 20.005768 14.000000 3.000000
vertex 20.005768 14.000000 1.500000
endloop
endfacet
facet normal 0.000000 1.000000 0.000000
outer loop
vertex 11.005768 14.000000 1.500000
vertex 15.505768 14.000000 1.500000
vertex 15.505768 14.000000 0.000000
endloop
endfacet
facet normal 0.000000 1.000000 0.000000
outer loop
vertex 11.005768 14.000000 3.000000
vertex 15.505768 14.000000 3.000000
vertex 15.505768 14.000000 1.500000
endloop
endfacet
facet normal 0.000000 1.000000 0.000000
outer loop
vertex 6.505767 14.000000 1.500000
vertex 11.005768 14.000000 1.500000
vertex 11.005768 14.000000 0.000000
endloop
endfacet
facet normal 0.000000 1.000000 0.000000
outer loop
vertex 6.505767 14.000000 3.000000
vertex 11.005768 14.000000 3.000000
vertex 11.005768 14.000000 1.500000
endloop
endfacet
facet normal 0.000000 1.000000 0.000000
outer loop
vertex 2.000000 14.000000 1.500000
vertex 6.505767 14.000000 1.500000
vertex 6.505767 14.000000 0.000000
endloop
endfacet
facet normal 0.000000 1.000000 0.000000
outer loop
vertex 2.000000 14.000000 3.000000
vertex 6.505767 14.000000 3.000000
vertex 6.505767 14.000000 1.500000
endloop
endfacet
facet normal 0.000000 1.000000 0.000000
outer loop
vertex 20.005768 14.000000 1.500000
vertex 24.500000 14.000000 1.500000
vertex 24.500000 14.000000 0.000000
endloop
endfacet
facet normal 0.000000 1.000000 0.000000
outer loop
vertex 20.005768 14.000000 3.000000
vertex 24.500000 14.000000 3.000000
vertex 24.500000 14.000000 1.500000
endloop
endfacet
facet normal -1.000000 0.000000 0.000000
outer loop
vertex 2.000000 11.000000 4.500000
vertex 2.000000 14.000000 4.500000
vertex 2.000000 14.000000 3.000000
endloop
endfacet
facet normal -1.000000 0.000000 0.000000
outer loop
vertex 2.000000 2.000000 4.500000
vertex 2.000000 5.000000 4.500000
vertex 2.000000 5.000000 3.000000
endloop
endfacet
facet normal -1.000000 0.000000 0.000000
outer loop
vertex 2.000000 5.000000 4.500000
vertex 2.000000 8.000000 4.500000
vertex 2.000000 8.000000 3.000000
endloop
endfacet
facet normal -1.000000 0.000000 0.000000
outer loop
vertex 2.000000 8.000000 4.500000
vertex 2.000000 11.000000 4.500000
vertex 2.000000 11.000000 3.000000
endloop
endfacet
facet normal -1.000000 0.000000 0.000000
outer loop
vertex 2.000000 8.000000 1.500000
vertex 2.000000 11.000000 1.500000
vertex 2.000000 11.000000 0.000000
endloop
endfacet
facet normal -1.000000 0.000000 0.000000
outer loop
vertex 2.000000 8.000000 3.000000
vertex 2.000000 11.000000 3.000000
vertex 2.000000 11.000000 1.500000
endloop
endfacet
facet normal -1.000000 0.000000 0.000000
outer loop
vertex 2.000000 5.000000 1.500000
vertex 2.000000 8.000000 1.500000
vertex 2.000000 8.000000 0.000000
endloop
endfacet
facet normal -1.000000 0.000000 0.000000
outer loop
vertex 2.000000 5.000000 3.000000
vertex 2.000000 8.000000 3.000000
vertex 2.000000 8.000000 1.500000
endloop
endfacet
facet normal -1.000000 0.000000 0.000000
outer loop
vertex 2.000000 2.000000 1.500000
vertex 2.000000 5.000000 1.500000
vertex 2.000000 5.000000 0.000000
endloop
endfacet
facet normal -1.000000 0.000000 0.000000
outer loop
vertex 2.000000 2.000000 3.000000
vertex 2.000000 5.000000 3.000000
vertex 2.000000 5.000000 1.500000
endloop
endfacet
facet normal -1.000000 0.000000 0.000000
outer loop
vertex 2.000000 11.000000 1.500000
vertex 2.000000 14.000000 1.500000
vertex 2.000000 14.000000 0.000000
endloop
endfacet
facet normal -1.000000 0.000000 0.000000
outer loop
vertex 2.000000 11.000000 3.000000
vertex 2.000000 14.000000 3.000000
vertex 2.000000 14.000000 1.500000
endloop
endfacet
endsolid Exported from Blender-2.93.0
